<svg xmlns="http://www.w3.org/2000/svg" width="673" height="545" font-family="DejaVu Sans, Liberation Sans, Arial, sans-serif" fill="black"><rect width="100%" height="100%" fill="white" /><line x1="59" y1="494" x2="659" y2="494" stroke="#000000" stroke-width="1" /><line x1="59" y1="44" x2="59" y2="494" stroke="#000000" stroke-width="1" /><line x1="209" y1="44" x2="209" y2="494" stroke="#cccccc" stroke-width="1" /><line x1="359" y1="44" x2="359" y2="494" stroke="#cccccc" stroke-width="1" /><line x1="509" y1="44" x2="509" y2="494" stroke="#cccccc" stroke-width="1" /><line x1="659" y1="44" x2="659" y2="494" stroke="#cccccc" stroke-width="1" /><line x1="59" y1="429.71000000000004" x2="659" y2="429.71000000000004" stroke="#cccccc" stroke-width="1" /><line x1="59" y1="365.43" x2="659" y2="365.43" stroke="#cccccc" stroke-width="1" /><line x1="59" y1="301.14" x2="659" y2="301.14" stroke="#cccccc" stroke-width="1" /><line x1="59" y1="236.86" x2="659" y2="236.86" stroke="#cccccc" stroke-width="1" /><line x1="59" y1="172.57" x2="659" y2="172.57" stroke="#cccccc" stroke-width="1" /><line x1="59" y1="108.29" x2="659" y2="108.29" stroke="#cccccc" stroke-width="1" /><line x1="59" y1="44" x2="659" y2="44" stroke="#cccccc" stroke-width="1" /><line x1="59" y1="494" x2="59" y2="499" stroke="#000000" stroke-width="1" /><text x="59" y="511" font-size="12" text-anchor="middle">0</text><line x1="209" y1="494" x2="209" y2="499" stroke="#000000" stroke-width="1" /><text x="209" y="511" font-size="12" text-anchor="middle">2.5</text><line x1="359" y1="494" x2="359" y2="499" stroke="#000000" stroke-width="1" /><text x="359" y="511" font-size="12" text-anchor="middle">5</text><line x1="509" y1="494" x2="509" y2="499" stroke="#000000" stroke-width="1" /><text x="509" y="511" font-size="12" text-anchor="middle">7.5</text><line x1="659" y1="494" x2="659" y2="499" stroke="#000000" stroke-width="1" /><text x="659" y="511" font-size="12" text-anchor="middle">10</text><line x1="54" y1="494" x2="59" y2="494" stroke="#000000" stroke-width="1" /><text x="51" y="498.2" font-size="12" text-anchor="end">0</text><line x1="54" y1="429.71000000000004" x2="59" y2="429.71000000000004" stroke="#000000" stroke-width="1" /><text x="51" y="433.91" font-size="12" text-anchor="end">1</text><line x1="54" y1="365.43" x2="59" y2="365.43" stroke="#000000" stroke-width="1" /><text x="51" y="369.63" font-size="12" text-anchor="end">2</text><line x1="54" y1="301.14" x2="59" y2="301.14" stroke="#000000" stroke-width="1" /><text x="51" y="305.34000000000003" font-size="12" text-anchor="end">3</text><line x1="54" y1="236.86" x2="59" y2="236.86" stroke="#000000" stroke-width="1" /><text x="51" y="241.06" font-size="12" text-anchor="end">4</text><line x1="54" y1="172.57" x2="59" y2="172.57" stroke="#000000" stroke-width="1" /><text x="51" y="176.77" font-size="12" text-anchor="end">5</text><line x1="54" y1="108.29" x2="59" y2="108.29" stroke="#000000" stroke-width="1" /><text x="51" y="112.49000000000001" font-size="12" text-anchor="end">6</text><line x1="54" y1="44" x2="59" y2="44" stroke="#000000" stroke-width="1" /><text x="51" y="48.2" font-size="12" text-anchor="end">7</text><text x="359" y="538" font-size="14" text-anchor="middle">Value</text><text x="15" y="272.5" font-size="14" text-anchor="middle" transform="rotate(-90,15,272.5)">Count</text><text x="359" y="22" font-size="18" text-anchor="middle">Histogram</text><rect x="59" y="172.57" width="30" height="321.43" fill="#4682b4" /><rect x="89" y="172.57" width="30" height="321.43" fill="#4682b4" /><rect x="119" y="172.57" width="30" height="321.43" fill="#4682b4" /><rect x="149" y="172.57" width="30" height="321.43" fill="#4682b4" /><rect x="179" y="172.57" width="30" height="321.43" fill="#4682b4" /><rect x="209" y="172.57" width="30" height="321.43" fill="#4682b4" /><rect x="239" y="172.57" width="30" height="321.43" fill="#4682b4" /><rect x="269" y="172.57" width="30" height="321.43" fill="#4682b4" /><rect x="299" y="172.57" width="30" height="321.43" fill="#4682b4" /><rect x="329" y="172.57" width="30" height="321.43" fill="#4682b4" /><rect x="359" y="172.57" width="30" height="321.43" fill="#4682b4" /><rect x="389" y="172.57" width="30" height="321.43" fill="#4682b4" /><rect x="419" y="172.57" width="30" height="321.43" fill="#4682b4" /><rect x="449" y="172.57" width="30" height="321.43" fill="#4682b4" /><rect x="479" y="172.57" width="30" height="321.43" fill="#4682b4" /><rect x="509" y="172.57" width="30" height="321.43" fill="#4682b4" /><rect x="539" y="172.57" width="30" height="321.43" fill="#4682b4" /><rect x="569" y="172.57" width="30" height="321.43" fill="#4682b4" /><rect x="599" y="172.57" width="30" height="321.43" fill="#4682b4" /><rect x="629" y="108.29" width="30" height="385.71000000000004" fill="#4682b4" /></svg>