<svg xmlns="http://www.w3.org/2000/svg" width="677.8000000000001" height="545" font-family="DejaVu Sans, Liberation Sans, Arial, sans-serif" fill="black"><rect width="100%" height="100%" fill="white" /><line x1="63.800000000000004" y1="494" x2="663.8000000000001" y2="494" stroke="#000000" stroke-width="1" /><line x1="63.800000000000004" y1="44" x2="63.800000000000004" y2="494" stroke="#000000" stroke-width="1" /><line x1="213.8" y1="44" x2="213.8" y2="494" stroke="#cccccc" stroke-width="1" /><line x1="363.8" y1="44" x2="363.8" y2="494" stroke="#cccccc" stroke-width="1" /><line x1="513.8" y1="44" x2="513.8" y2="494" stroke="#cccccc" stroke-width="1" /><line x1="663.8000000000001" y1="44" x2="663.8000000000001" y2="494" stroke="#cccccc" stroke-width="1" /><line x1="63.800000000000004" y1="381.5" x2="663.8000000000001" y2="381.5" stroke="#cccccc" stroke-width="1" /><line x1="63.800000000000004" y1="269" x2="663.8000000000001" y2="269" stroke="#cccccc" stroke-width="1" /><line x1="63.800000000000004" y1="156.5" x2="663.8000000000001" y2="156.5" stroke="#cccccc" stroke-width="1" /><line x1="63.800000000000004" y1="44" x2="663.8000000000001" y2="44" stroke="#cccccc" stroke-width="1" /><line x1="63.800000000000004" y1="494" x2="63.800000000000004" y2="499" stroke="#000000" stroke-width="1" /><text x="63.800000000000004" y="511" font-size="12" text-anchor="middle">-10</text><line x1="213.8" y1="494" x2="213.8" y2="499" stroke="#000000" stroke-width="1" /><text x="213.8" y="511" font-size="12" text-anchor="middle">0</text><line x1="363.8" y1="494" x2="363.8" y2="499" stroke="#000000" stroke-width="1" /><text x="363.8" y="511" font-size="12" text-anchor="middle">10</text><line x1="513.8" y1="494" x2="513.8" y2="499" stroke="#000000" stroke-width="1" /><text x="513.8" y="511" font-size="12" text-anchor="middle">20</text><line x1="663.8000000000001" y1="494" x2="663.8000000000001" y2="499" stroke="#000000" stroke-width="1" /><text x="663.8000000000001" y="511" font-size="12" text-anchor="middle">30</text><line x1="58.800000000000004" y1="494" x2="63.800000000000004" y2="494" stroke="#000000" stroke-width="1" /><text x="55.800000000000004" y="498.2" font-size="12" text-anchor="end">0</text><line x1="58.800000000000004" y1="381.5" x2="63.800000000000004" y2="381.5" stroke="#000000" stroke-width="1" /><text x="55.800000000000004" y="385.7" font-size="12" text-anchor="end">0.02</text><line x1="58.800000000000004" y1="269" x2="63.800000000000004" y2="269" stroke="#000000" stroke-width="1" /><text x="55.800000000000004" y="273.2" font-size="12" text-anchor="end">0.04</text><line x1="58.800000000000004" y1="156.5" x2="63.800000000000004" y2="156.5" stroke="#000000" stroke-width="1" /><text x="55.800000000000004" y="160.70000000000002" font-size="12" text-anchor="end">0.06</text><line x1="58.800000000000004" y1="44" x2="63.800000000000004" y2="44" stroke="#000000" stroke-width="1" /><text x="55.800000000000004" y="48.2" font-size="12" text-anchor="end">0.08</text><text x="363.8" y="538" font-size="14" text-anchor="middle">Allele quality</text><text x="15" y="272.5" font-size="14" text-anchor="middle" transform="rotate(-90,15,272.5)">Density</text><text x="363.8" y="22" font-size="18" text-anchor="middle">Density of average allele quality</text><path d="M 185.84 493.90000000000003 L 190.99 493.76 L 196.14000000000001 493.46000000000004 L 201.3 492.83 L 206.45000000000002 491.66 L 211.6 489.56 L 216.75 486.04 L 221.91 480.44 L 227.06 472.02 L 232.21 460.07 L 237.37 444.03000000000003 L 242.52 423.61 L 247.67000000000002 399.01 L 252.82 370.85 L 257.98 340.18 L 263.13 308.39 L 268.28000000000003 277.0 L 273.43 247.49 L 278.59000000000003 221.25 L 283.74 199.41 L 288.89 182.82 L 294.04 172.03 L 299.2 167.20000000000002 L 304.35 168.14000000000001 L 309.5 174.34 L 314.65000000000003 185.03 L 319.81 199.26 L 324.96 216.05 L 330.11 234.45000000000002 L 335.26 253.58 L 340.42 272.65 L 345.57 290.95 L 350.72 307.92 L 355.87 323.2 L 361.03000000000003 336.62 L 366.18 348.3 L 371.33 358.42 L 376.48 367.41 L 381.64 375.57 L 386.79 383.0 L 391.94 389.72 L 397.09000000000003 395.55 L 402.25 400.13 L 407.40000000000003 403.13 L 412.55 404.25 L 417.7 403.2 L 422.86 399.8 L 428.01 393.89 L 433.16 385.29 L 438.31 373.85 L 443.47 359.46 L 448.62 342.1 L 453.77 321.92 L 458.92 299.35 L 464.08 275.0 L 469.23 249.75 L 474.38 224.54 L 479.53000000000003 200.34 L 484.69 177.95000000000002 L 489.84000000000003 158.04 L 494.99 141.12 L 500.14 127.56 L 505.3 117.62 L 510.45 111.5 L 515.6 109.31 L 520.75 111.08 L 525.91 116.69 L 531.0600000000001 125.95 L 536.21 138.6 L 541.37 154.29 L 546.52 172.61 L 551.67 193.1 L 556.82 215.19 L 561.98 238.26 L 567.13 261.63 L 572.28 284.69 L 577.4300000000001 306.92 L 582.59 327.98 L 587.74 347.68 L 592.89 365.99 L 598.04 382.93 L 603.2 398.5 L 608.35 412.71000000000004 L 613.5 425.51 L 618.65 436.83 L 623.8100000000001 446.62 L 628.96 454.87 L 634.11 461.64 L 639.26 467.08 L 644.42 471.37 L 649.57 474.74 L 654.72 477.39 L 659.87 479.51 L 665.03 481.24 L 670.1800000000001 482.66 L 675.33 483.85 L 680.48 484.86 L 685.64 485.74 L 690.79 486.54 L 695.94 487.32 L 701.09 488.1 L 706.25 488.90000000000003 L 711.4 489.71000000000004 L 716.5500000000001 490.51 L 721.7 491.26 L 726.86 491.92 L 732.01 492.46000000000004 L 737.16 492.86 L 742.3100000000001 493.13 L 747.47 493.28000000000003 L 752.62 493.34000000000003 L 757.77 493.33 L 762.92 493.29 L 768.08 493.23 L 773.23 493.16 L 778.38 493.11 L 783.53 493.08 L 788.69 493.07 L 793.84 493.08 L 798.99 493.13 L 804.14 493.2 L 809.3000000000001 493.28000000000003 L 814.45 493.36 L 819.6 493.39 L 824.76 493.36 L 829.91 493.26 L 835.0600000000001 493.07 L 840.21 492.8 L 845.37 492.48 L 850.52 492.15000000000003 L 855.6700000000001 491.87 L 860.82 491.69 L 865.98 491.63 L 871.13 491.7 L 876.28 491.89 L 881.4300000000001 492.16 L 886.59 492.46000000000004 L 891.74 492.74 L 896.89 492.98 L 902.04 493.16 L 907.2 493.27000000000004 L 912.35 493.34000000000003 L 917.5 493.37 L 922.65 493.37 L 927.8100000000001 493.36 L 932.96 493.33 L 938.11 493.29 L 943.26 493.24 L 948.4200000000001 493.2 L 953.57 493.17 L 958.72 493.16 L 963.87 493.2 L 969.03 493.27000000000004 L 974.1800000000001 493.37 L 979.33 493.48 L 984.48 493.6 L 989.64 493.71000000000004 L 994.7900000000001 493.8 L 999.94 493.88 L 1005.09 493.93 L 1010.25 493.96000000000004 L 1015.4 493.98 L 1020.5500000000001 493.99 L 1025.7 493.99 L 1030.8600000000001 493.99 L 1036.01 493.98 L 1041.16 493.96000000000004 L 1046.31 493.93 L 1051.47 493.89 L 1056.6200000000001 493.83 L 1061.77 493.76 L 1066.92 493.7 L 1072.08 493.64 L 1077.23 493.59000000000003 L 1082.38 493.57 L 1087.53 493.59000000000003 L 1092.69 493.62 L 1097.84 493.68 L 1102.99 493.74 L 1108.14 493.79 L 1113.3 493.83 L 1118.45 493.84000000000003 L 1123.6000000000001 493.82 L 1128.76 493.78000000000003 L 1133.91 493.73 L 1139.06 493.67 L 1144.21 493.62 L 1149.3700000000001 493.58 L 1154.52 493.58 L 1159.67 493.6 L 1164.82 493.65000000000003 L 1169.98 493.71000000000004 L 1175.13 493.78000000000003 L 1180.28 493.84000000000003 L 1185.43 493.89 L 1190.59 493.93 L 1195.74 493.96000000000004 L 1200.89 493.98 L 1206.04 493.99 L 1211.2 494.0" stroke="#4682b4" stroke-width="1.5" fill="none" /></svg>