<svg xmlns="http://www.w3.org/2000/svg" width="677.8000000000001" height="545" font-family="DejaVu Sans, Liberation Sans, Arial, sans-serif" fill="black"><rect width="100%" height="100%" fill="white" /><line x1="63.800000000000004" y1="494" x2="663.8000000000001" y2="494" stroke="#000000" stroke-width="1" /><line x1="63.800000000000004" y1="44" x2="63.800000000000004" y2="494" stroke="#000000" stroke-width="1" /><line x1="288.8" y1="44" x2="288.8" y2="494" stroke="#cccccc" stroke-width="1" /><line x1="438.8" y1="44" x2="438.8" y2="494" stroke="#cccccc" stroke-width="1" /><line x1="588.8000000000001" y1="44" x2="588.8000000000001" y2="494" stroke="#cccccc" stroke-width="1" /><line x1="63.800000000000004" y1="381.5" x2="663.8000000000001" y2="381.5" stroke="#cccccc" stroke-width="1" /><line x1="63.800000000000004" y1="269" x2="663.8000000000001" y2="269" stroke="#cccccc" stroke-width="1" /><line x1="63.800000000000004" y1="156.5" x2="663.8000000000001" y2="156.5" stroke="#cccccc" stroke-width="1" /><line x1="63.800000000000004" y1="44" x2="663.8000000000001" y2="44" stroke="#cccccc" stroke-width="1" /><line x1="138.8" y1="494" x2="138.8" y2="499" stroke="#000000" stroke-width="1" /><text x="138.8" y="511" font-size="12" text-anchor="middle">-0</text><line x1="288.8" y1="494" x2="288.8" y2="499" stroke="#000000" stroke-width="1" /><text x="288.8" y="511" font-size="12" text-anchor="middle">20</text><line x1="438.8" y1="494" x2="438.8" y2="499" stroke="#000000" stroke-width="1" /><text x="438.8" y="511" font-size="12" text-anchor="middle">40</text><line x1="588.8000000000001" y1="494" x2="588.8000000000001" y2="499" stroke="#000000" stroke-width="1" /><text x="588.8000000000001" y="511" font-size="12" text-anchor="middle">60</text><line x1="58.800000000000004" y1="494" x2="63.800000000000004" y2="494" stroke="#000000" stroke-width="1" /><text x="55.800000000000004" y="498.2" font-size="12" text-anchor="end">0</text><line x1="58.800000000000004" y1="381.5" x2="63.800000000000004" y2="381.5" stroke="#000000" stroke-width="1" /><text x="55.800000000000004" y="385.7" font-size="12" text-anchor="end">0.02</text><line x1="58.800000000000004" y1="269" x2="63.800000000000004" y2="269" stroke="#000000" stroke-width="1" /><text x="55.800000000000004" y="273.2" font-size="12" text-anchor="end">0.04</text><line x1="58.800000000000004" y1="156.5" x2="63.800000000000004" y2="156.5" stroke="#000000" stroke-width="1" /><text x="55.800000000000004" y="160.70000000000002" font-size="12" text-anchor="end">0.06</text><line x1="58.800000000000004" y1="44" x2="63.800000000000004" y2="44" stroke="#000000" stroke-width="1" /><text x="55.800000000000004" y="48.2" font-size="12" text-anchor="end">0.08</text><text x="363.8" y="538" font-size="14" text-anchor="middle">Allele quality</text><text x="15" y="272.5" font-size="14" text-anchor="middle" transform="rotate(-90,15,272.5)">Density</text><text x="363.8" y="22" font-size="18" text-anchor="middle">Density of average allele quality</text><path d="M 124.82000000000001 493.90000000000003 L 127.4 493.76 L 129.97 493.46000000000004 L 132.55 492.83 L 135.12 491.66 L 137.70000000000002 489.56 L 140.28 486.04 L 142.85 480.44 L 145.43 472.02 L 148.01 460.07 L 150.58 444.03000000000003 L 153.16 423.61 L 155.74 399.01 L 158.31 370.85 L 160.89000000000001 340.18 L 163.46 308.39 L 166.04 277.0 L 168.62 247.49 L 171.19 221.25 L 173.77 199.41 L 176.35 182.82 L 178.92000000000002 172.03 L 181.5 167.20000000000002 L 184.07 168.14000000000001 L 186.65 174.34 L 189.23 185.03 L 191.8 199.26 L 194.38 216.05 L 196.96 234.45000000000002 L 199.53 253.58 L 202.11 272.65 L 204.68 290.95 L 207.26 307.92 L 209.84 323.2 L 212.41 336.62 L 214.99 348.3 L 217.57 358.42 L 220.14000000000001 367.41 L 222.72 375.57 L 225.29 383.0 L 227.87 389.72 L 230.45000000000002 395.55 L 233.02 400.13 L 235.6 403.13 L 238.18 404.25 L 240.75 403.2 L 243.33 399.8 L 245.9 393.89 L 248.48000000000002 385.29 L 251.06 373.85 L 253.63 359.46 L 256.21 342.1 L 258.79 321.92 L 261.36 299.35 L 263.94 275.0 L 266.51 249.75 L 269.09000000000003 224.54 L 271.67 200.34 L 274.24 177.95000000000002 L 276.82 158.04 L 279.40000000000003 141.12 L 281.97 127.56 L 284.55 117.62 L 287.12 111.5 L 289.7 109.31 L 292.28000000000003 111.08 L 294.85 116.69 L 297.43 125.95 L 300.01 138.6 L 302.58 154.29 L 305.16 172.61 L 307.74 193.1 L 310.31 215.19 L 312.89 238.26 L 315.46 261.63 L 318.04 284.69 L 320.62 306.92 L 323.19 327.98 L 325.77 347.68 L 328.35 365.99 L 330.92 382.93 L 333.5 398.5 L 336.07 412.71000000000004 L 338.65000000000003 425.51 L 341.23 436.83 L 343.8 446.62 L 346.38 454.87 L 348.96 461.64 L 351.53000000000003 467.08 L 354.11 471.37 L 356.68 474.74 L 359.26 477.39 L 361.84000000000003 479.51 L 364.41 481.24 L 366.99 482.66 L 369.57 483.85 L 372.14 484.86 L 374.72 485.74 L 377.29 486.54 L 379.87 487.32 L 382.45 488.1 L 385.02 488.90000000000003 L 387.6 489.71000000000004 L 390.18 490.51 L 392.75 491.26 L 395.33 491.92 L 397.90000000000003 492.46000000000004 L 400.48 492.86 L 403.06 493.13 L 405.63 493.28000000000003 L 408.21000000000004 493.34000000000003 L 410.79 493.33 L 413.36 493.29 L 415.94 493.23 L 418.51 493.16 L 421.09000000000003 493.11 L 423.67 493.08 L 426.24 493.07 L 428.82 493.08 L 431.40000000000003 493.13 L 433.97 493.2 L 436.55 493.28000000000003 L 439.12 493.36 L 441.7 493.39 L 444.28000000000003 493.36 L 446.85 493.26 L 449.43 493.07 L 452.01 492.8 L 454.58 492.48 L 457.16 492.15000000000003 L 459.74 491.87 L 462.31 491.69 L 464.89 491.63 L 467.46000000000004 491.7 L 470.04 491.89 L 472.62 492.16 L 475.19 492.46000000000004 L 477.77 492.74 L 480.35 492.98 L 482.92 493.16 L 485.5 493.27000000000004 L 488.07 493.34000000000003 L 490.65000000000003 493.37 L 493.23 493.37 L 495.8 493.36 L 498.38 493.33 L 500.96000000000004 493.29 L 503.53000000000003 493.24 L 506.11 493.2 L 508.68 493.17 L 511.26 493.16 L 513.84 493.2 L 516.41 493.27000000000004 L 518.99 493.37 L 521.57 493.48 L 524.14 493.6 L 526.72 493.71000000000004 L 529.29 493.8 L 531.87 493.88 L 534.45 493.93 L 537.02 493.96000000000004 L 539.6 493.98 L 542.1800000000001 493.99 L 544.75 493.99 L 547.33 493.99 L 549.9 493.98 L 552.48 493.96000000000004 L 555.0600000000001 493.93 L 557.63 493.89 L 560.21 493.83 L 562.79 493.76 L 565.36 493.7 L 567.94 493.64 L 570.51 493.59000000000003 L 573.09 493.57 L 575.67 493.59000000000003 L 578.24 493.62 L 580.82 493.68 L 583.4 493.74 L 585.97 493.79 L 588.5500000000001 493.83 L 591.13 493.84000000000003 L 593.7 493.82 L 596.28 493.78000000000003 L 598.85 493.73 L 601.4300000000001 493.67 L 604.01 493.62 L 606.58 493.58 L 609.16 493.58 L 611.74 493.6 L 614.3100000000001 493.65000000000003 L 616.89 493.71000000000004 L 619.46 493.78000000000003 L 622.04 493.84000000000003 L 624.62 493.89 L 627.19 493.93 L 629.77 493.96000000000004 L 632.35 493.98 L 634.92 493.99 L 637.5 494.0" stroke="#4682b4" stroke-width="1.5" fill="none" /></svg>