<svg xmlns="http://www.w3.org/2000/svg" width="673" height="545" font-family="DejaVu Sans, Liberation Sans, Arial, sans-serif" fill="black"><rect width="100%" height="100%" fill="white" /><line x1="59" y1="494" x2="659" y2="494" stroke="#000000" stroke-width="1" /><line x1="59" y1="44" x2="59" y2="494" stroke="#000000" stroke-width="1" /><line x1="201.86" y1="44" x2="201.86" y2="494" stroke="#cccccc" stroke-width="1" /><line x1="316.14" y1="44" x2="316.14" y2="494" stroke="#cccccc" stroke-width="1" /><line x1="430.43" y1="44" x2="430.43" y2="494" stroke="#cccccc" stroke-width="1" /><line x1="544.71" y1="44" x2="544.71" y2="494" stroke="#cccccc" stroke-width="1" /><line x1="659" y1="44" x2="659" y2="494" stroke="#cccccc" stroke-width="1" /><line x1="59" y1="381.5" x2="659" y2="381.5" stroke="#cccccc" stroke-width="1" /><line x1="59" y1="269" x2="659" y2="269" stroke="#cccccc" stroke-width="1" /><line x1="59" y1="156.5" x2="659" y2="156.5" stroke="#cccccc" stroke-width="1" /><line x1="59" y1="44" x2="659" y2="44" stroke="#cccccc" stroke-width="1" /><line x1="87.57000000000001" y1="494" x2="87.57000000000001" y2="499" stroke="#000000" stroke-width="1" /><text x="87.57000000000001" y="511" font-size="12" text-anchor="middle">-0</text><line x1="201.86" y1="494" x2="201.86" y2="499" stroke="#000000" stroke-width="1" /><text x="201.86" y="511" font-size="12" text-anchor="middle">1</text><line x1="316.14" y1="494" x2="316.14" y2="499" stroke="#000000" stroke-width="1" /><text x="316.14" y="511" font-size="12" text-anchor="middle">2</text><line x1="430.43" y1="494" x2="430.43" y2="499" stroke="#000000" stroke-width="1" /><text x="430.43" y="511" font-size="12" text-anchor="middle">3</text><line x1="544.71" y1="494" x2="544.71" y2="499" stroke="#000000" stroke-width="1" /><text x="544.71" y="511" font-size="12" text-anchor="middle">4</text><line x1="659" y1="494" x2="659" y2="499" stroke="#000000" stroke-width="1" /><text x="659" y="511" font-size="12" text-anchor="middle">5</text><line x1="54" y1="494" x2="59" y2="494" stroke="#000000" stroke-width="1" /><text x="51" y="498.2" font-size="12" text-anchor="end">0</text><line x1="54" y1="381.5" x2="59" y2="381.5" stroke="#000000" stroke-width="1" /><text x="51" y="385.7" font-size="12" text-anchor="end">1</text><line x1="54" y1="269" x2="59" y2="269" stroke="#000000" stroke-width="1" /><text x="51" y="273.2" font-size="12" text-anchor="end">2</text><line x1="54" y1="156.5" x2="59" y2="156.5" stroke="#000000" stroke-width="1" /><text x="51" y="160.70000000000002" font-size="12" text-anchor="end">3</text><line x1="54" y1="44" x2="59" y2="44" stroke="#000000" stroke-width="1" /><text x="51" y="48.2" font-size="12" text-anchor="end">4</text><text x="359" y="538" font-size="14" text-anchor="middle">Allele quality</text><text x="15" y="272.5" font-size="14" text-anchor="middle" transform="rotate(-90,15,272.5)">Density</text><text x="359" y="22" font-size="18" text-anchor="middle">Density of average allele quality</text><path d="M 64.4 491.34000000000003 L 65.21000000000001 490.39 L 66.02 489.14 L 66.84 487.53000000000003 L 67.65 485.47 L 68.46000000000001 482.85 L 69.28 479.58 L 70.09 475.53000000000003 L 70.9 470.58 L 71.72 464.58 L 72.53 457.41 L 73.34 448.93 L 74.16 439.04 L 74.97 427.62 L 75.78 414.6 L 76.60000000000001 399.96000000000004 L 77.41 383.69 L 78.22 365.86 L 79.03 346.59000000000003 L 79.85000000000001 326.05 L 80.66 304.5 L 81.47 282.24 L 82.29 259.65 L 83.10000000000001 237.12 L 83.91 215.13 L 84.73 194.15 L 85.54 174.66 L 86.35000000000001 157.15 L 87.17 142.04 L 87.98 129.74 L 88.79 120.57000000000001 L 89.61 114.78 L 90.42 112.5 L 91.23 113.8 L 92.05 118.63 L 92.86 126.82000000000001 L 93.67 138.16 L 94.49 152.31 L 95.3 168.89000000000001 L 96.11 187.48 L 96.92 207.6 L 97.74000000000001 228.79 L 98.55 250.59 L 99.36 272.56 L 100.18 294.29 L 100.99000000000001 315.42 L 101.8 335.67 L 102.62 354.78000000000003 L 103.43 372.58 L 104.24000000000001 388.94 L 105.06 403.79 L 105.87 417.12 L 106.68 428.96000000000004 L 107.5 439.34000000000003 L 108.31 448.37 L 109.12 456.13 L 109.94 462.74 L 110.75 468.33 L 111.56 473.01 L 112.38 476.89 L 113.19 480.09000000000003 L 114.0 482.71000000000004 L 114.82000000000001 484.84000000000003 L 115.63 486.57 L 116.44 487.95 L 117.25 489.06 L 118.07000000000001 489.95 L 118.88 490.66 L 119.69 491.22 L 120.51 491.68 L 121.32000000000001 492.04 L 122.13 492.39 L 122.95 492.61 L 123.76 492.8 L 124.57000000000001 492.95 L 125.39 493.07 L 126.2 493.18 L 127.01 493.26 L 127.83 493.34000000000003 L 128.64000000000001 493.40000000000003 L 129.45 493.46000000000004 L 130.27 493.51 L 131.08 493.55 L 131.89000000000001 493.59000000000003 L 132.71 493.63 L 133.52 493.66 L 134.33 493.69 L 135.14000000000001 493.71000000000004 L 135.96 493.74 L 136.77 493.75 L 137.58 493.77000000000004 L 138.4 493.78000000000003 L 139.21 493.79 L 140.02 493.8 L 140.84 493.81 L 141.65 493.81 L 142.46 493.82 L 143.28 493.82 L 144.09 493.82 L 144.9 493.81 L 145.72 493.81 L 146.53 493.8 L 147.34 493.79 L 148.16 493.78000000000003 L 148.97 493.77000000000004 L 149.78 493.75 L 150.6 493.74 L 151.41 493.71000000000004 L 152.22 493.69 L 153.03 493.66 L 153.85 493.62 L 154.66 493.58 L 155.47 493.54 L 156.29 493.48 L 157.1 493.42 L 157.91 493.35 L 158.73 493.26 L 159.54 493.16 L 160.35 493.05 L 161.17000000000002 492.92 L 161.98 492.76 L 162.79 492.58 L 163.61 492.36 L 164.42000000000002 492.11 L 165.23 491.81 L 166.05 491.45 L 166.86 491.03000000000003 L 167.67000000000002 490.53000000000003 L 168.49 489.93 L 169.3 489.22 L 170.11 488.37 L 170.92000000000002 487.37 L 171.74 486.17 L 172.55 484.75 L 173.36 483.07 L 174.18 481.09000000000003 L 174.99 478.76 L 175.8 476.04 L 176.62 472.88 L 177.43 469.22 L 178.24 465.01 L 179.06 460.22 L 179.87 454.79 L 180.68 448.69 L 181.5 441.90000000000003 L 182.31 434.40000000000003 L 183.12 426.21000000000004 L 183.94 417.33 L 184.75 407.83 L 185.56 397.76 L 186.38 387.23 L 187.19 376.34000000000003 L 188.0 365.26 L 188.82 354.13 L 189.63 343.15000000000003 L 190.44 332.52 L 191.25 322.45 L 192.07 313.16 L 192.88 304.85 L 193.69 297.71 L 194.51 291.94 L 195.32 287.68 L 196.13 285.05 L 196.95000000000002 284.12 L 197.76 284.95 L 198.57 287.51 L 199.39000000000001 291.77 L 200.20000000000002 297.61 L 201.01 304.92 L 201.83 313.52 L 202.64000000000001 323.22 L 203.45000000000002 333.8 L 204.27 345.04 L 205.08 356.71 L 205.89000000000001 368.58 L 206.71 380.44 L 207.52 392.08 L 208.33 403.36 L 209.14000000000001 414.1 L 209.96 424.21000000000004 L 210.77 433.58 L 211.58 442.17 L 212.4 449.95 L 213.21 456.89 L 214.02 463.03000000000003 L 214.84 468.39 L 215.65 473.01 L 216.46 476.96000000000004 L 217.28 480.3 L 218.09 483.08 L 218.9 485.38 L 219.72 487.25 L 220.53 488.77 L 221.34 489.99 L 222.16 490.95 L 222.97 491.7 L 223.78 492.28000000000003 L 224.6 492.73 L 225.41 493.07 L 226.22 493.33" stroke="#4682b4" stroke-width="1.5" fill="none" /></svg>