<svg xmlns="http://www.w3.org/2000/svg" width="673" height="545" font-family="DejaVu Sans, Liberation Sans, Arial, sans-serif" fill="black"><rect width="100%" height="100%" fill="white" /><line x1="59" y1="494" x2="659" y2="494" stroke="#000000" stroke-width="1" /><line x1="59" y1="44" x2="59" y2="494" stroke="#000000" stroke-width="1" /><line x1="159" y1="44" x2="159" y2="494" stroke="#cccccc" stroke-width="1" /><line x1="259" y1="44" x2="259" y2="494" stroke="#cccccc" stroke-width="1" /><line x1="359" y1="44" x2="359" y2="494" stroke="#cccccc" stroke-width="1" /><line x1="459" y1="44" x2="459" y2="494" stroke="#cccccc" stroke-width="1" /><line x1="559" y1="44" x2="559" y2="494" stroke="#cccccc" stroke-width="1" /><line x1="659" y1="44" x2="659" y2="494" stroke="#cccccc" stroke-width="1" /><line x1="59" y1="381.5" x2="659" y2="381.5" stroke="#cccccc" stroke-width="1" /><line x1="59" y1="269" x2="659" y2="269" stroke="#cccccc" stroke-width="1" /><line x1="59" y1="156.5" x2="659" y2="156.5" stroke="#cccccc" stroke-width="1" /><line x1="59" y1="44" x2="659" y2="44" stroke="#cccccc" stroke-width="1" /><line x1="59" y1="494" x2="59" y2="499" stroke="#000000" stroke-width="1" /><text x="59" y="511" font-size="12" text-anchor="middle">-0.25</text><line x1="159" y1="494" x2="159" y2="499" stroke="#000000" stroke-width="1" /><text x="159" y="511" font-size="12" text-anchor="middle">0</text><line x1="259" y1="494" x2="259" y2="499" stroke="#000000" stroke-width="1" /><text x="259" y="511" font-size="12" text-anchor="middle">0.25</text><line x1="359" y1="494" x2="359" y2="499" stroke="#000000" stroke-width="1" /><text x="359" y="511" font-size="12" text-anchor="middle">0.5</text><line x1="459" y1="494" x2="459" y2="499" stroke="#000000" stroke-width="1" /><text x="459" y="511" font-size="12" text-anchor="middle">0.75</text><line x1="559" y1="494" x2="559" y2="499" stroke="#000000" stroke-width="1" /><text x="559" y="511" font-size="12" text-anchor="middle">1</text><line x1="659" y1="494" x2="659" y2="499" stroke="#000000" stroke-width="1" /><text x="659" y="511" font-size="12" text-anchor="middle">1.25</text><line x1="54" y1="494" x2="59" y2="494" stroke="#000000" stroke-width="1" /><text x="51" y="498.2" font-size="12" text-anchor="end">0</text><line x1="54" y1="381.5" x2="59" y2="381.5" stroke="#000000" stroke-width="1" /><text x="51" y="385.7" font-size="12" text-anchor="end">1</text><line x1="54" y1="269" x2="59" y2="269" stroke="#000000" stroke-width="1" /><text x="51" y="273.2" font-size="12" text-anchor="end">2</text><line x1="54" y1="156.5" x2="59" y2="156.5" stroke="#000000" stroke-width="1" /><text x="51" y="160.70000000000002" font-size="12" text-anchor="end">3</text><line x1="54" y1="44" x2="59" y2="44" stroke="#000000" stroke-width="1" /><text x="51" y="48.2" font-size="12" text-anchor="end">4</text><text x="359" y="538" font-size="14" text-anchor="middle">Allele quality</text><text x="15" y="272.5" font-size="14" text-anchor="middle" transform="rotate(-90,15,272.5)">Density</text><text x="359" y="22" font-size="18" text-anchor="middle">Density of average allele quality</text><path d="M 77.89 491.34000000000003 L 80.74 490.39 L 83.58 489.14 L 86.43 487.53000000000003 L 89.28 485.47 L 92.12 482.85 L 94.97 479.58 L 97.81 475.53000000000003 L 100.66 470.58 L 103.51 464.58 L 106.35000000000001 457.41 L 109.2 448.93 L 112.04 439.04 L 114.89 427.62 L 117.74000000000001 414.6 L 120.58 399.96000000000004 L 123.43 383.69 L 126.28 365.86 L 129.12 346.59000000000003 L 131.97 326.05 L 134.81 304.5 L 137.66 282.24 L 140.51 259.65 L 143.35 237.12 L 146.20000000000002 215.13 L 149.04 194.15 L 151.89000000000001 174.66 L 154.74 157.15 L 157.58 142.04 L 160.43 129.74 L 163.28 120.57000000000001 L 166.12 114.78 L 168.97 112.5 L 171.81 113.8 L 174.66 118.63 L 177.51 126.82000000000001 L 180.35 138.16 L 183.20000000000002 152.31 L 186.04 168.89000000000001 L 188.89000000000001 187.48 L 191.74 207.6 L 194.58 228.79 L 197.43 250.59 L 200.28 272.56 L 203.12 294.29 L 205.97 315.42 L 208.81 335.67 L 211.66 354.78000000000003 L 214.51 372.58 L 217.35 388.94 L 220.20000000000002 403.79 L 223.04 417.12 L 225.89000000000001 428.96000000000004 L 228.74 439.34000000000003 L 231.58 448.37 L 234.43 456.13 L 237.28 462.74 L 240.12 468.33 L 242.97 473.01 L 245.81 476.89 L 248.66 480.09000000000003 L 251.51000000000002 482.71000000000004 L 254.35 484.84000000000003 L 257.2 486.57 L 260.04 487.95 L 262.89 489.06 L 265.74 489.95 L 268.58 490.66 L 271.43 491.22 L 274.28000000000003 491.68 L 277.12 492.04 L 279.97 492.39 L 282.81 492.61 L 285.66 492.8 L 288.51 492.95 L 291.35 493.07 L 294.2 493.18 L 297.04 493.26 L 299.89 493.34000000000003 L 302.74 493.40000000000003 L 305.58 493.46000000000004 L 308.43 493.51 L 311.28000000000003 493.55 L 314.12 493.59000000000003 L 316.97 493.63 L 319.81 493.66 L 322.66 493.69 L 325.51 493.71000000000004 L 328.35 493.74 L 331.2 493.75 L 334.04 493.77000000000004 L 336.89 493.78000000000003 L 339.74 493.79 L 342.58 493.8 L 345.43 493.81 L 348.28000000000003 493.81 L 351.12 493.82 L 353.97 493.82 L 356.81 493.82 L 359.66 493.81 L 362.51 493.81 L 365.35 493.8 L 368.2 493.79 L 371.04 493.78000000000003 L 373.89 493.77000000000004 L 376.74 493.75 L 379.58 493.74 L 382.43 493.71000000000004 L 385.28000000000003 493.69 L 388.12 493.66 L 390.97 493.62 L 393.81 493.58 L 396.66 493.54 L 399.51 493.48 L 402.35 493.42 L 405.2 493.35 L 408.04 493.26 L 410.89 493.16 L 413.74 493.05 L 416.58 492.92 L 419.43 492.76 L 422.28000000000003 492.58 L 425.12 492.36 L 427.97 492.11 L 430.81 491.81 L 433.66 491.45 L 436.51 491.03000000000003 L 439.35 490.53000000000003 L 442.2 489.93 L 445.04 489.22 L 447.89 488.37 L 450.74 487.37 L 453.58 486.17 L 456.43 484.75 L 459.28000000000003 483.07 L 462.12 481.09000000000003 L 464.97 478.76 L 467.81 476.04 L 470.66 472.88 L 473.51 469.22 L 476.35 465.01 L 479.2 460.22 L 482.04 454.79 L 484.89 448.69 L 487.74 441.90000000000003 L 490.58 434.40000000000003 L 493.43 426.21000000000004 L 496.28000000000003 417.33 L 499.12 407.83 L 501.97 397.76 L 504.81 387.23 L 507.66 376.34000000000003 L 510.51 365.26 L 513.35 354.13 L 516.2 343.15000000000003 L 519.04 332.52 L 521.89 322.45 L 524.74 313.16 L 527.58 304.85 L 530.4300000000001 297.71 L 533.28 291.94 L 536.12 287.68 L 538.97 285.05 L 541.8100000000001 284.12 L 544.66 284.95 L 547.51 287.51 L 550.35 291.77 L 553.2 297.61 L 556.04 304.92 L 558.89 313.52 L 561.74 323.22 L 564.58 333.8 L 567.4300000000001 345.04 L 570.28 356.71 L 573.12 368.58 L 575.97 380.44 L 578.8100000000001 392.08 L 581.66 403.36 L 584.51 414.1 L 587.35 424.21000000000004 L 590.2 433.58 L 593.04 442.17 L 595.89 449.95 L 598.74 456.89 L 601.58 463.03000000000003 L 604.4300000000001 468.39 L 607.28 473.01 L 610.12 476.96000000000004 L 612.97 480.3 L 615.8100000000001 483.08 L 618.66 485.38 L 621.51 487.25 L 624.35 488.77 L 627.2 489.99 L 630.04 490.95 L 632.89 491.7 L 635.74 492.28000000000003 L 638.58 492.73 L 641.4300000000001 493.07 L 644.28 493.33" stroke="#4682b4" stroke-width="1.5" fill="none" /></svg>