<svg xmlns="http://www.w3.org/2000/svg" width="673" height="511" font-family="DejaVu Sans, Liberation Sans, Arial, sans-serif" fill="black"><rect width="100%" height="100%" fill="white" /><rect x="134.83" y="10" width="20" height="450" fill="#1f77b4" /><rect x="306.5" y="10" width="20" height="147.33" fill="#ff7f0e" /><rect x="306.5" y="165.33" width="20" height="294.67" fill="#2ca02c" /><rect x="478.17" y="10" width="20" height="450" fill="#d62728" /><path d="M 154.83333333333331 10 C 230.66666666666666 10 230.66666666666666 10.000000000000028 306.5 10.000000000000028 L 306.5 157.33333333333334 C 230.66666666666666 157.33333333333334 230.66666666666666 160 154.83333333333331 160 Z" stroke="none" stroke-width="0" fill="#1f77b4" fill-opacity="0.5" /><path d="M 154.83333333333331 160 C 230.66666666666666 160 230.66666666666666 165.33333333333334 306.5 165.33333333333334 L 306.5 460 C 230.66666666666666 460 230.66666666666666 460 154.83333333333331 460 Z" stroke="none" stroke-width="0" fill="#1f77b4" fill-opacity="0.5" /><path d="M 326.5 10.000000000000028 C 402.3333333333333 10.000000000000028 402.3333333333333 10 478.16666666666663 10 L 478.16666666666663 160 C 402.3333333333333 160 402.3333333333333 157.33333333333334 326.5 157.33333333333334 Z" stroke="none" stroke-width="0" fill="#ff7f0e" fill-opacity="0.5" /><path d="M 326.5 165.33333333333334 C 402.3333333333333 165.33333333333334 402.3333333333333 160 478.16666666666663 160 L 478.16666666666663 460 C 402.3333333333333 460 402.3333333333333 460 326.5 460 Z" stroke="none" stroke-width="0" fill="#2ca02c" fill-opacity="0.5" /><text x="128.83" y="239.20000000000002" font-size="12" text-anchor="end">A</text><text x="332.5" y="87.87" font-size="12" text-anchor="start">B</text><text x="332.5" y="316.87" font-size="12" text-anchor="start">C</text><text x="504.17" y="239.20000000000002" font-size="12" text-anchor="start">D</text></svg>