<svg xmlns="http://www.w3.org/2000/svg" width="673" height="511" font-family="DejaVu Sans, Liberation Sans, Arial, sans-serif" fill="black"><rect width="100%" height="100%" fill="white" /><rect x="113.38" y="10" width="20" height="450" fill="#1f77b4" /><rect x="242.13" y="10" width="20" height="311.90000000000003" fill="#ff7f0e" /><rect x="242.13" y="329.90000000000003" width="20" height="130.1" fill="#2ca02c" /><rect x="370.88" y="10" width="20" height="406.02" fill="#d62728" /><rect x="370.88" y="424.02" width="20" height="2.4" fill="#9467bd" /><rect x="370.88" y="434.41" width="20" height="17.52" fill="#8c564b" /><rect x="370.88" y="459.93" width="20" height="1" fill="#e377c2" /><rect x="499.63" y="10" width="20" height="1.6400000000000001" fill="#7f7f7f" /><rect x="499.63" y="19.64" width="20" height="22.19" fill="#bcbd22" /><rect x="499.63" y="49.83" width="20" height="48.61" fill="#17becf" /><rect x="499.63" y="106.44" width="20" height="4.45" fill="#1f77b4" /><rect x="499.63" y="118.89" width="20" height="1.87" fill="#ff7f0e" /><rect x="499.63" y="128.75" width="20" height="1.72" fill="#2ca02c" /><rect x="499.63" y="138.48" width="20" height="55.95" fill="#d62728" /><rect x="499.63" y="202.42000000000002" width="20" height="44.67" fill="#9467bd" /><rect x="499.63" y="255.1" width="20" height="1.37" fill="#8c564b" /><rect x="499.63" y="264.47" width="20" height="2.04" fill="#e377c2" /><rect x="499.63" y="274.51" width="20" height="32.64" fill="#7f7f7f" /><rect x="499.63" y="315.16" width="20" height="36.35" fill="#bcbd22" /><rect x="499.63" y="359.5" width="20" height="2.43" fill="#17becf" /><rect x="499.63" y="369.93" width="20" height="1.52" fill="#1f77b4" /><rect x="499.63" y="379.46" width="20" height="1.06" fill="#ff7f0e" /><rect x="499.63" y="388.51" width="20" height="71.49" fill="#2ca02c" /><path d="M 133.375 10 C 187.75 10 187.75 10 242.125 10 L 242.125 321.9038339843324 C 187.75 321.9038339843324 187.75 327.54915224649227 133.375 327.54915224649227 Z" stroke="none" stroke-width="0" fill="#1f77b4" fill-opacity="0.5" /><path d="M 133.375 327.54915224649227 C 187.75 327.54915224649227 187.75 329.9038339843324 242.125 329.9038339843324 L 242.125 460 C 187.75 460 187.75 460 133.375 460 Z" stroke="none" stroke-width="0" fill="#1f77b4" fill-opacity="0.5" /><path d="M 262.125 10 C 316.5 10 316.5 9.999999999999972 370.875 9.999999999999972 L 370.875 416.01632728790764 C 316.5 416.01632728790764 316.5 307.27241582473215 262.125 307.27241582473215 Z" stroke="none" stroke-width="0" fill="#ff7f0e" fill-opacity="0.5" /><path d="M 262.125 307.27241582473215 C 316.5 307.27241582473215 316.5 424.01632728790764 370.875 424.01632728790764 L 370.875 426.413841087249 C 316.5 426.413841087249 316.5 309.02780020511926 262.125 309.02780020511926 Z" stroke="none" stroke-width="0" fill="#ff7f0e" fill-opacity="0.5" /><path d="M 262.125 309.02780020511926 C 316.5 309.02780020511926 316.5 434.413841087249 370.875 434.413841087249 L 370.875 451.9319387108246 C 316.5 451.9319387108246 316.5 321.8540016438635 262.125 321.8540016438635 Z" stroke="none" stroke-width="0" fill="#ff7f0e" fill-opacity="0.5" /><path d="M 262.125 321.8540016438635 C 316.5 321.8540016438635 316.5 459.9319387108246 370.875 459.9319387108246 L 370.875 460.00000000000006 C 316.5 460.00000000000006 316.5 321.9038339843324 262.125 321.9038339843324 Z" stroke="none" stroke-width="0" fill="#ff7f0e" fill-opacity="0.5" /><path d="M 390.875 434.413841087249 C 445.25 434.413841087249 445.25 10 499.625 10 L 499.625 11.63596118356937 C 445.25 11.63596118356937 445.25 436.5134952662204 390.875 436.5134952662204 Z" stroke="none" stroke-width="0" fill="#8c564b" fill-opacity="0.5" /><path d="M 390.875 9.999999999999972 C 445.25 9.999999999999972 445.25 19.63596118356937 499.625 19.63596118356937 L 499.625 41.828353411989134 C 445.25 41.828353411989134 445.25 38.48255175719341 390.875 38.48255175719341 Z" stroke="none" stroke-width="0" fill="#d62728" fill-opacity="0.5" /><path d="M 390.875 38.48255175719341 C 445.25 38.48255175719341 445.25 49.828353411989134 499.625 49.828353411989134 L 499.625 98.4401787380513 C 445.25 98.4401787380513 445.25 100.87279867650014 390.875 100.87279867650014 Z" stroke="none" stroke-width="0" fill="#d62728" fill-opacity="0.5" /><path d="M 390.875 100.87279867650014 C 445.25 100.87279867650014 445.25 106.4401787380513 499.625 106.4401787380513 L 499.625 110.88618408775167 C 445.25 110.88618408775167 445.25 106.57896933995083 390.875 106.57896933995083 Z" stroke="none" stroke-width="0" fill="#d62728" fill-opacity="0.5" /><path d="M 390.875 436.5134952662204 C 445.25 436.5134952662204 445.25 118.88618408775167 499.625 118.88618408775167 L 499.625 120.7542248118274 C 445.25 120.7542248118274 445.25 438.91100906556176 390.875 438.91100906556176 Z" stroke="none" stroke-width="0" fill="#8c564b" fill-opacity="0.5" /><path d="M 390.875 438.91100906556176 C 445.25 438.91100906556176 445.25 128.75422481182738 499.625 128.75422481182738 L 499.625 130.4785700955896 C 445.25 130.4785700955896 445.25 441.1240987264922 390.875 441.1240987264922 Z" stroke="none" stroke-width="0" fill="#8c564b" fill-opacity="0.5" /><path d="M 390.875 106.57896933995083 C 445.25 106.57896933995083 445.25 138.4785700955896 499.625 138.4785700955896 L 499.625 194.42399485765233 C 445.25 194.42399485765233 445.25 178.38143389458386 390.875 178.38143389458386 Z" stroke="none" stroke-width="0" fill="#d62728" fill-opacity="0.5" /><path d="M 390.875 178.38143389458386 C 445.25 178.38143389458386 445.25 202.42399485765233 499.625 202.42399485765233 L 499.625 247.09788085512264 C 445.25 247.09788085512264 445.25 235.71758121124975 390.875 235.71758121124975 Z" stroke="none" stroke-width="0" fill="#d62728" fill-opacity="0.5" /><path d="M 390.875 441.1240987264922 C 445.25 441.1240987264922 445.25 255.09788085512264 499.625 255.09788085512264 L 499.625 256.47211105812096 C 445.25 256.47211105812096 445.25 442.88783751050096 390.875 442.88783751050096 Z" stroke="none" stroke-width="0" fill="#8c564b" fill-opacity="0.5" /><path d="M 390.875 442.88783751050096 C 445.25 442.88783751050096 445.25 264.47211105812096 499.625 264.47211105812096 L 499.625 266.5123582225724 C 445.25 266.5123582225724 445.25 445.5063675392077 390.875 445.5063675392077 Z" stroke="none" stroke-width="0" fill="#8c564b" fill-opacity="0.5" /><path d="M 390.875 235.71758121124975 C 445.25 235.71758121124975 445.25 274.5123582225724 499.625 274.5123582225724 L 499.625 307.1551724137931 C 445.25 307.1551724137931 445.25 277.61259798691964 390.875 277.61259798691964 Z" stroke="none" stroke-width="0" fill="#d62728" fill-opacity="0.5" /><path d="M 390.875 277.61259798691964 C 445.25 277.61259798691964 445.25 315.1551724137931 499.625 315.1551724137931 L 499.625 351.5049868331018 C 445.25 351.5049868331018 445.25 324.2653184284986 390.875 324.2653184284986 Z" stroke="none" stroke-width="0" fill="#d62728" fill-opacity="0.5" /><path d="M 390.875 445.5063675392077 C 445.25 445.5063675392077 445.25 359.5049868331018 499.625 359.5049868331018 L 499.625 361.93298359839923 C 445.25 361.93298359839923 445.25 448.6225500048962 390.875 448.6225500048962 Z" stroke="none" stroke-width="0" fill="#8c564b" fill-opacity="0.5" /><path d="M 390.875 448.6225500048962 C 445.25 448.6225500048962 445.25 369.93298359839923 499.625 369.93298359839923 L 499.625 371.45547100172104 C 445.25 371.45547100172104 445.25 450.5765676618685 390.875 450.5765676618685 Z" stroke="none" stroke-width="0" fill="#8c564b" fill-opacity="0.5" /><path d="M 390.875 450.5765676618685 C 445.25 450.5765676618685 445.25 379.45547100172104 499.625 379.45547100172104 L 499.625 380.5115184440251 C 445.25 380.5115184440251 445.25 451.9319387108246 390.875 451.9319387108246 Z" stroke="none" stroke-width="0" fill="#8c564b" fill-opacity="0.5" /><path d="M 390.875 324.2653184284986 C 445.25 324.2653184284986 445.25 388.5115184440251 499.625 388.5115184440251 L 499.625 460 C 445.25 460 445.25 416.01632728790764 390.875 416.01632728790764 Z" stroke="none" stroke-width="0" fill="#d62728" fill-opacity="0.5" /><text x="107.38" y="239.20000000000002" font-size="12" text-anchor="end">Initial Reads</text><text x="268.13" y="170.15" font-size="12" text-anchor="start">Pass QC</text><text x="268.13" y="399.15000000000003" font-size="12" text-anchor="start">Fail QC</text><text x="396.88" y="217.21" font-size="12" text-anchor="start">Primary Match</text><text x="396.88" y="429.42" font-size="12" text-anchor="start">No Match</text><text x="396.88" y="447.37" font-size="12" text-anchor="start">Alt Match</text><text x="396.88" y="464.17" font-size="12" text-anchor="start">Chimeric</text><text x="525.63" y="15.02" font-size="12" text-anchor="start">B_PA</text><text x="525.63" y="34.93" font-size="12" text-anchor="start">A_NS</text><text x="525.63" y="78.33" font-size="12" text-anchor="start">A_PB2</text><text x="525.63" y="112.86" font-size="12" text-anchor="start">A_NA_N2</text><text x="525.63" y="124.02" font-size="12" text-anchor="start">B_PB1</text><text x="525.63" y="133.82" font-size="12" text-anchor="start">B_PB2</text><text x="525.63" y="170.65" font-size="12" text-anchor="start">A_NP</text><text x="525.63" y="228.96" font-size="12" text-anchor="start">A_HA_H3</text><text x="525.63" y="259.98" font-size="12" text-anchor="start">B_NS</text><text x="525.63" y="269.69" font-size="12" text-anchor="start">B_HA</text><text x="525.63" y="295.03000000000003" font-size="12" text-anchor="start">A_PB1</text><text x="525.63" y="337.53000000000003" font-size="12" text-anchor="start">A_PA</text><text x="525.63" y="364.92" font-size="12" text-anchor="start">B_MP</text><text x="525.63" y="374.89" font-size="12" text-anchor="start">B_NA</text><text x="525.63" y="384.18" font-size="12" text-anchor="start">B_NP</text><text x="525.63" y="428.46000000000004" font-size="12" text-anchor="start">A_MP</text></svg>