<svg xmlns="http://www.w3.org/2000/svg" width="673" height="511" font-family="DejaVu Sans, Liberation Sans, Arial, sans-serif" fill="black"><rect width="100%" height="100%" fill="white" /><rect x="113.38" y="10" width="20" height="450" fill="#1f77b4" /><rect x="242.13" y="10" width="20" height="311.90000000000003" fill="#ff7f0e" /><rect x="242.13" y="329.90000000000003" width="20" height="130.1" fill="#2ca02c" /><rect x="370.88" y="10" width="20" height="406.02" fill="#d62728" /><rect x="370.88" y="424.02" width="20" height="2.4" fill="#9467bd" /><rect x="370.88" y="434.41" width="20" height="17.52" fill="#8c564b" /><rect x="370.88" y="459.93" width="20" height="1" fill="#e377c2" /><rect x="499.63" y="10" width="20" height="2.04" fill="#7f7f7f" /><rect x="499.63" y="20.04" width="20" height="1.06" fill="#bcbd22" /><rect x="499.63" y="29.1" width="20" height="1.6400000000000001" fill="#17becf" /><rect x="499.63" y="38.730000000000004" width="20" height="1.37" fill="#1f77b4" /><rect x="499.63" y="48.11" width="20" height="1.87" fill="#ff7f0e" /><rect x="499.63" y="57.97" width="20" height="4.45" fill="#2ca02c" /><rect x="499.63" y="70.42" width="20" height="32.64" fill="#d62728" /><rect x="499.63" y="111.06" width="20" height="71.49" fill="#9467bd" /><rect x="499.63" y="190.55" width="20" height="22.19" fill="#8c564b" /><rect x="499.63" y="220.74" width="20" height="2.43" fill="#e377c2" /><rect x="499.63" y="231.17000000000002" width="20" height="1.72" fill="#7f7f7f" /><rect x="499.63" y="240.9" width="20" height="48.61" fill="#bcbd22" /><rect x="499.63" y="297.51" width="20" height="44.67" fill="#17becf" /><rect x="499.63" y="350.18" width="20" height="36.35" fill="#1f77b4" /><rect x="499.63" y="394.53000000000003" width="20" height="1.52" fill="#ff7f0e" /><rect x="499.63" y="404.05" width="20" height="55.95" fill="#2ca02c" /><path d="M 133.375 10 C 187.75 10 187.75 10 242.125 10 L 242.125 321.9038339843324 C 187.75 321.9038339843324 187.75 327.54915224649227 133.375 327.54915224649227 Z" stroke="none" stroke-width="0" fill="#1f77b4" fill-opacity="0.5" /><path d="M 133.375 327.54915224649227 C 187.75 327.54915224649227 187.75 329.9038339843324 242.125 329.9038339843324 L 242.125 460 C 187.75 460 187.75 460 133.375 460 Z" stroke="none" stroke-width="0" fill="#1f77b4" fill-opacity="0.5" /><path d="M 262.125 10 C 316.5 10 316.5 9.999999999999972 370.875 9.999999999999972 L 370.875 416.01632728790764 C 316.5 416.01632728790764 316.5 307.27241582473215 262.125 307.27241582473215 Z" stroke="none" stroke-width="0" fill="#ff7f0e" fill-opacity="0.5" /><path d="M 262.125 307.27241582473215 C 316.5 307.27241582473215 316.5 424.01632728790764 370.875 424.01632728790764 L 370.875 426.413841087249 C 316.5 426.413841087249 316.5 309.02780020511926 262.125 309.02780020511926 Z" stroke="none" stroke-width="0" fill="#ff7f0e" fill-opacity="0.5" /><path d="M 262.125 309.02780020511926 C 316.5 309.02780020511926 316.5 434.413841087249 370.875 434.413841087249 L 370.875 451.9319387108246 C 316.5 451.9319387108246 316.5 321.8540016438635 262.125 321.8540016438635 Z" stroke="none" stroke-width="0" fill="#ff7f0e" fill-opacity="0.5" /><path d="M 262.125 321.8540016438635 C 316.5 321.8540016438635 316.5 459.9319387108246 370.875 459.9319387108246 L 370.875 460.00000000000006 C 316.5 460.00000000000006 316.5 321.9038339843324 262.125 321.9038339843324 Z" stroke="none" stroke-width="0" fill="#ff7f0e" fill-opacity="0.5" /><path d="M 390.875 434.413841087249 C 445.25 434.413841087249 445.25 9.999999999999972 499.625 9.999999999999972 L 499.625 12.04024716445142 C 445.25 12.04024716445142 445.25 437.03237111595575 390.875 437.03237111595575 Z" stroke="none" stroke-width="0" fill="#8c564b" fill-opacity="0.5" /><path d="M 390.875 437.03237111595575 C 445.25 437.03237111595575 445.25 20.040247164451422 499.625 20.040247164451422 L 499.625 21.096294606755524 C 445.25 21.096294606755524 445.25 438.38774216491186 390.875 438.38774216491186 Z" stroke="none" stroke-width="0" fill="#8c564b" fill-opacity="0.5" /><path d="M 390.875 438.38774216491186 C 445.25 438.38774216491186 445.25 29.096294606755528 499.625 29.096294606755528 L 499.625 30.7322557903249 C 445.25 30.7322557903249 445.25 440.48739634388323 390.875 440.48739634388323 Z" stroke="none" stroke-width="0" fill="#8c564b" fill-opacity="0.5" /><path d="M 390.875 440.48739634388323 C 445.25 440.48739634388323 445.25 38.7322557903249 499.625 38.7322557903249 L 499.625 40.10648599332322 C 445.25 40.10648599332322 445.25 442.251135127892 390.875 442.251135127892 Z" stroke="none" stroke-width="0" fill="#8c564b" fill-opacity="0.5" /><path d="M 390.875 442.251135127892 C 445.25 442.251135127892 445.25 48.10648599332322 499.625 48.10648599332322 L 499.625 49.974526717398945 C 445.25 49.974526717398945 445.25 444.64864892723335 390.875 444.64864892723335 Z" stroke="none" stroke-width="0" fill="#8c564b" fill-opacity="0.5" /><path d="M 390.875 9.999999999999972 C 445.25 9.999999999999972 445.25 57.974526717398945 499.625 57.974526717398945 L 499.625 62.420532067099316 C 445.25 62.420532067099316 445.25 15.706170663450656 390.875 15.706170663450656 Z" stroke="none" stroke-width="0" fill="#d62728" fill-opacity="0.5" /><path d="M 390.875 15.706170663450656 C 445.25 15.706170663450656 445.25 70.42053206709932 499.625 70.42053206709932 L 499.625 103.06334625832 C 445.25 103.06334625832 445.25 57.60118743912053 390.875 57.60118743912053 Z" stroke="none" stroke-width="0" fill="#d62728" fill-opacity="0.5" /><path d="M 390.875 57.60118743912053 C 445.25 57.60118743912053 445.25 111.06334625832 499.625 111.06334625832 L 499.625 182.55182781429488 C 445.25 182.55182781429488 445.25 149.3521962985296 390.875 149.3521962985296 Z" stroke="none" stroke-width="0" fill="#d62728" fill-opacity="0.5" /><path d="M 390.875 149.3521962985296 C 445.25 149.3521962985296 445.25 190.55182781429488 499.625 190.55182781429488 L 499.625 212.74422004271463 C 445.25 212.74422004271463 445.25 177.83474805572305 390.875 177.83474805572305 Z" stroke="none" stroke-width="0" fill="#d62728" fill-opacity="0.5" /><path d="M 390.875 444.64864892723335 C 445.25 444.64864892723335 445.25 220.74422004271463 499.625 220.74422004271463 L 499.625 223.17221680801208 C 445.25 223.17221680801208 445.25 447.76483139292185 390.875 447.76483139292185 Z" stroke="none" stroke-width="0" fill="#8c564b" fill-opacity="0.5" /><path d="M 390.875 447.76483139292185 C 445.25 447.76483139292185 445.25 231.17221680801208 499.625 231.17221680801208 L 499.625 232.89656209177429 C 445.25 232.89656209177429 445.25 449.9779210538523 390.875 449.9779210538523 Z" stroke="none" stroke-width="0" fill="#8c564b" fill-opacity="0.5" /><path d="M 390.875 177.83474805572305 C 445.25 177.83474805572305 445.25 240.89656209177429 499.625 240.89656209177429 L 499.625 289.50838741783645 C 445.25 289.50838741783645 445.25 240.22499497502977 390.875 240.22499497502977 Z" stroke="none" stroke-width="0" fill="#d62728" fill-opacity="0.5" /><path d="M 390.875 240.22499497502977 C 445.25 240.22499497502977 445.25 297.50838741783645 499.625 297.50838741783645 L 499.625 342.1822734153067 C 445.25 342.1822734153067 445.25 297.56114229169566 390.875 297.56114229169566 Z" stroke="none" stroke-width="0" fill="#d62728" fill-opacity="0.5" /><path d="M 390.875 297.56114229169566 C 445.25 297.56114229169566 445.25 350.1822734153067 499.625 350.1822734153067 L 499.625 386.5320878346154 C 445.25 386.5320878346154 445.25 344.2138627332746 390.875 344.2138627332746 Z" stroke="none" stroke-width="0" fill="#d62728" fill-opacity="0.5" /><path d="M 390.875 449.9779210538523 C 445.25 449.9779210538523 445.25 394.5320878346154 499.625 394.5320878346154 L 499.625 396.05457523793723 C 445.25 396.05457523793723 445.25 451.9319387108246 390.875 451.9319387108246 Z" stroke="none" stroke-width="0" fill="#8c564b" fill-opacity="0.5" /><path d="M 390.875 344.2138627332746 C 445.25 344.2138627332746 445.25 404.05457523793723 499.625 404.05457523793723 L 499.625 460 C 445.25 460 445.25 416.01632728790764 390.875 416.01632728790764 Z" stroke="none" stroke-width="0" fill="#d62728" fill-opacity="0.5" /><text x="107.38" y="239.20000000000002" font-size="12" text-anchor="end">Initial Reads</text><text x="268.13" y="170.15" font-size="12" text-anchor="start">Pass QC</text><text x="268.13" y="399.15000000000003" font-size="12" text-anchor="start">Fail QC</text><text x="396.88" y="217.21" font-size="12" text-anchor="start">Primary Match</text><text x="396.88" y="429.42" font-size="12" text-anchor="start">No Match</text><text x="396.88" y="447.37" font-size="12" text-anchor="start">Alt Match</text><text x="396.88" y="464.17" font-size="12" text-anchor="start">Chimeric</text><text x="525.63" y="15.22" font-size="12" text-anchor="start">B_HA</text><text x="525.63" y="24.77" font-size="12" text-anchor="start">B_NP</text><text x="525.63" y="34.11" font-size="12" text-anchor="start">B_PA</text><text x="525.63" y="43.62" font-size="12" text-anchor="start">B_NS</text><text x="525.63" y="53.24" font-size="12" text-anchor="start">B_PB1</text><text x="525.63" y="64.4" font-size="12" text-anchor="start">A_NA_N2</text><text x="525.63" y="90.94" font-size="12" text-anchor="start">A_PB1</text><text x="525.63" y="151.01" font-size="12" text-anchor="start">A_MP</text><text x="525.63" y="205.85" font-size="12" text-anchor="start">A_NS</text><text x="525.63" y="226.16" font-size="12" text-anchor="start">B_MP</text><text x="525.63" y="236.23000000000002" font-size="12" text-anchor="start">B_PB2</text><text x="525.63" y="269.4" font-size="12" text-anchor="start">A_PB2</text><text x="525.63" y="324.05" font-size="12" text-anchor="start">A_HA_H3</text><text x="525.63" y="372.56" font-size="12" text-anchor="start">A_PA</text><text x="525.63" y="399.49" font-size="12" text-anchor="start">B_NA</text><text x="525.63" y="436.23" font-size="12" text-anchor="start">A_NP</text></svg>