<svg xmlns="http://www.w3.org/2000/svg" width="1035" height="795" font-family="DejaVu Sans, Liberation Sans, Arial, sans-serif" fill="black"><rect width="100%" height="100%" fill="white" /><defs><clipPath id="kuva-clip-13"><rect x="71" y="10" width="922.4" height="319"/></clipPath><clipPath id="kuva-clip-14"><rect x="71" y="10" width="930" height="319"/></clipPath></defs><g transform="translate(10,10)"><line x1="71" y1="329" x2="993.4" y2="329" stroke="#000000" stroke-width="1" /><line x1="71" y1="10" x2="71" y2="329" stroke="#000000" stroke-width="1" /><line x1="71" y1="329" x2="71" y2="334" stroke="#000000" stroke-width="1" /><text x="71" y="346" font-size="12" text-anchor="middle">0</text><line x1="255.48000000000002" y1="329" x2="255.48000000000002" y2="334" stroke="#000000" stroke-width="1" /><text x="255.48000000000002" y="346" font-size="12" text-anchor="middle">200</text><line x1="439.96000000000004" y1="329" x2="439.96000000000004" y2="334" stroke="#000000" stroke-width="1" /><text x="439.96000000000004" y="346" font-size="12" text-anchor="middle">400</text><line x1="624.44" y1="329" x2="624.44" y2="334" stroke="#000000" stroke-width="1" /><text x="624.44" y="346" font-size="12" text-anchor="middle">600</text><line x1="808.9200000000001" y1="329" x2="808.9200000000001" y2="334" stroke="#000000" stroke-width="1" /><text x="808.9200000000001" y="346" font-size="12" text-anchor="middle">800</text><line x1="993.4" y1="329" x2="993.4" y2="334" stroke="#000000" stroke-width="1" /><text x="993.4" y="346" font-size="12" text-anchor="middle">1000</text><line x1="66" y1="329" x2="71" y2="329" stroke="#000000" stroke-width="1" /><text x="63" y="333.2" font-size="12" text-anchor="end">0</text><line x1="66" y1="283.43" x2="71" y2="283.43" stroke="#000000" stroke-width="1" /><text x="63" y="287.63" font-size="12" text-anchor="end">5000</text><line x1="66" y1="237.86" x2="71" y2="237.86" stroke="#000000" stroke-width="1" /><text x="63" y="242.06" font-size="12" text-anchor="end">10000</text><line x1="66" y1="192.29" x2="71" y2="192.29" stroke="#000000" stroke-width="1" /><text x="63" y="196.49" font-size="12" text-anchor="end">15000</text><line x1="66" y1="146.71" x2="71" y2="146.71" stroke="#000000" stroke-width="1" /><text x="63" y="150.91" font-size="12" text-anchor="end">20000</text><line x1="66" y1="101.14" x2="71" y2="101.14" stroke="#000000" stroke-width="1" /><text x="63" y="105.34" font-size="12" text-anchor="end">25000</text><line x1="66" y1="55.57" x2="71" y2="55.57" stroke="#000000" stroke-width="1" /><text x="63" y="59.77" font-size="12" text-anchor="end">30000</text><line x1="66" y1="10" x2="71" y2="10" stroke="#000000" stroke-width="1" /><text x="63" y="14.200000000000001" font-size="12" text-anchor="end">35000</text><text x="532.2" y="373" font-size="14" text-anchor="middle">A_NA_N1 position</text><text x="15" y="190" font-size="14" text-anchor="middle" transform="rotate(-90,15,190)">Coverage depth</text><g clip-path="url(#kuva-clip-13)"><path d="M 71.92 316.77 L 72.84 315.88 L 73.77 315.53000000000003 L 74.69 315.51 L 75.61 315.48 L 76.53 315.47 L 77.46000000000001 315.47 L 78.38 315.48 L 79.3 315.47 L 80.22 315.5 L 81.15 315.47 L 82.07000000000001 315.47 L 82.99 315.48 L 83.91 315.47 L 84.84 315.47 L 85.76 315.47 L 86.68 315.47 L 87.60000000000001 315.47 L 88.53 315.47 L 89.45 315.48 L 90.37 315.47 L 91.29 315.47 L 92.22 315.47 L 93.14 315.47 L 94.06 315.47 L 94.98 315.47 L 95.9 315.47 L 96.83 325.43 L 97.75 325.35 L 98.67 325.35 L 99.59 328.88 L 100.52 328.88 L 101.44 328.86 L 102.36 328.79 L 103.28 328.78000000000003 L 104.21000000000001 328.77 L 105.13 328.18 L 106.05 327.91 L 106.97 314.40000000000003 L 107.9 304.34000000000003 L 108.82000000000001 256.95 L 109.74000000000001 235.67000000000002 L 110.66 234.34 L 111.59 212.51 L 112.51 196.15 L 113.43 193.21 L 114.35000000000001 153.32 L 115.28 152.12 L 116.2 133.27 L 117.12 131.15 L 118.04 130.3 L 118.96000000000001 129.96 L 119.89 128.6 L 120.81 126.2 L 121.73 126.08 L 122.65 125.55 L 123.58 123.31 L 124.5 122.17 L 125.42 121.87 L 126.34 120.63 L 127.27 119.85000000000001 L 128.19 118.72 L 129.11 118.44 L 130.03 119.86 L 130.96 119.73 L 131.88 119.59 L 132.8 120.05 L 133.72 119.69 L 134.65 119.5 L 135.57 118.93 L 136.49 118.85000000000001 L 137.41 118.27 L 138.34 117.5 L 139.26 116.97 L 140.18 116.49000000000001 L 141.1 116.39 L 142.02 116.07000000000001 L 142.95000000000002 115.63 L 143.87 115.32000000000001 L 144.79 114.32000000000001 L 145.71 113.88 L 146.64000000000001 113.57000000000001 L 147.56 113.45 L 148.48 113.27 L 149.4 111.44 L 150.33 111.43 L 151.25 110.44 L 152.17000000000002 110.22 L 153.09 113.49000000000001 L 154.02 116.95 L 154.94 114.91 L 155.86 115.49000000000001 L 156.78 109.41 L 157.71 109.97 L 158.63 111.36 L 159.55 106.88 L 160.47 114.94 L 161.4 104.54 L 162.32 108.69 L 163.24 103.97 L 164.16 102.87 L 165.08 102.87 L 166.01 102.71000000000001 L 166.93 101.44 L 167.85 100.65 L 168.77 100.63 L 169.70000000000002 100.16 L 170.62 98.7 L 171.54 98.52 L 172.46 97.98 L 173.39000000000001 95.24 L 174.31 95.0 L 175.23 94.98 L 176.15 94.43 L 177.08 92.8 L 178.0 92.7 L 178.92000000000002 92.62 L 179.84 92.63 L 180.77 92.09 L 181.69 91.32000000000001 L 182.61 90.52 L 183.53 89.31 L 184.46 89.25 L 185.38 88.29 L 186.3 87.96000000000001 L 187.22 87.4 L 188.14000000000001 86.88 L 189.07 86.92 L 189.99 86.09 L 190.91 85.99 L 191.83 84.9 L 192.76 84.76 L 193.68 84.48 L 194.6 82.36 L 195.52 81.97 L 196.45000000000002 81.09 L 197.37 81.01 L 198.29 79.44 L 199.21 79.26 L 200.14000000000001 79.05 L 201.06 76.61 L 201.98000000000002 76.53 L 202.9 76.0 L 203.83 75.44 L 204.75 75.65 L 205.67000000000002 74.02 L 206.59 73.61 L 207.52 71.87 L 208.44 71.06 L 209.36 70.83 L 210.28 70.58 L 211.20000000000002 69.46000000000001 L 212.13 68.4 L 213.05 67.62 L 213.97 67.18 L 214.89000000000001 66.71000000000001 L 215.82 65.93 L 216.74 65.95 L 217.66 64.56 L 218.58 62.38 L 219.51 61.95 L 220.43 60.980000000000004 L 221.35 60.800000000000004 L 222.27 60.5 L 223.20000000000002 60.86 L 224.12 60.78 L 225.04 60.800000000000004 L 225.96 60.85 L 226.89000000000001 60.550000000000004 L 227.81 59.78 L 228.73000000000002 58.800000000000004 L 229.65 58.94 L 230.58 57.72 L 231.5 57.9 L 232.42000000000002 55.21 L 233.34 52.13 L 234.26 52.84 L 235.19 52.14 L 236.11 52.4 L 237.03 51.82 L 237.95000000000002 49.730000000000004 L 238.88 51.83 L 239.8 50.81 L 240.72 53.56 L 241.64000000000001 53.27 L 242.57 53.730000000000004 L 243.49 53.63 L 244.41 57.04 L 245.33 67.14 L 246.26000000000002 85.84 L 247.18 84.19 L 248.1 88.64 L 249.02 88.61 L 249.95000000000002 95.01 L 250.87 94.57000000000001 L 251.79 106.22 L 252.71 106.44 L 253.64000000000001 105.91 L 254.56 113.24000000000001 L 255.48000000000002 110.3 L 256.4 111.0 L 257.32 111.37 L 258.25 113.21000000000001 L 259.17 115.62 L 260.09000000000003 111.24000000000001 L 261.01 112.32000000000001 L 261.94 113.03 L 262.86 113.39 L 263.78000000000003 113.85000000000001 L 264.7 114.15 L 265.63 113.54 L 266.55 116.99000000000001 L 267.47 113.97 L 268.39 111.59 L 269.32 110.61 L 270.24 108.44 L 271.16 112.28 L 272.08 110.75 L 273.01 108.19 L 273.93 108.47 L 274.85 107.7 L 275.77 107.63 L 276.7 106.17 L 277.62 106.37 L 278.54 108.43 L 279.46 107.67 L 280.38 111.42 L 281.31 110.64 L 282.23 110.88 L 283.15000000000003 109.53 L 284.07 111.31 L 285.0 109.09 L 285.92 111.0 L 286.84000000000003 112.11 L 287.76 110.59 L 288.69 111.62 L 289.61 112.45 L 290.53000000000003 109.37 L 291.45 110.79 L 292.38 112.06 L 293.3 110.88 L 294.22 111.73 L 295.14 110.83 L 296.07 112.07000000000001 L 296.99 111.61 L 297.91 112.29 L 298.83 112.84 L 299.76 110.39 L 300.68 109.86 L 301.6 111.72 L 302.52 111.96000000000001 L 303.44 110.73 L 304.37 110.37 L 305.29 112.54 L 306.21 115.95 L 307.13 114.89 L 308.06 114.62 L 308.98 114.53 L 309.90000000000003 115.94 L 310.82 116.16 L 311.75 116.92 L 312.67 115.48 L 313.59000000000003 118.38 L 314.51 119.57000000000001 L 315.44 118.83 L 316.36 119.54 L 317.28000000000003 118.54 L 318.2 118.0 L 319.13 119.52 L 320.05 118.04 L 320.97 119.03 L 321.89 119.85000000000001 L 322.82 122.12 L 323.74 120.9 L 324.66 122.12 L 325.58 120.35000000000001 L 326.5 120.63 L 327.43 120.88 L 328.35 119.2 L 329.27 120.21000000000001 L 330.19 119.73 L 331.12 120.99000000000001 L 332.04 119.4 L 332.96 119.52 L 333.88 120.24000000000001 L 334.81 117.94 L 335.73 119.05 L 336.65000000000003 119.13 L 337.57 117.76 L 338.5 116.24000000000001 L 339.42 118.94 L 340.34000000000003 120.45 L 341.26 117.23 L 342.19 114.61 L 343.11 115.73 L 344.03000000000003 117.57000000000001 L 344.95 115.92 L 345.88 116.52 L 346.8 116.3 L 347.72 114.74000000000001 L 348.64 113.88 L 349.56 118.46000000000001 L 350.49 119.05 L 351.41 119.08 L 352.33 116.97 L 353.25 118.83 L 354.18 120.14 L 355.1 119.93 L 356.02 119.09 L 356.94 119.62 L 357.87 120.16 L 358.79 122.72 L 359.71 120.92 L 360.63 122.8 L 361.56 121.18 L 362.48 111.75 L 363.40000000000003 113.57000000000001 L 364.32 115.23 L 365.25 114.07000000000001 L 366.17 114.76 L 367.09000000000003 113.38 L 368.01 112.74000000000001 L 368.94 114.3 L 369.86 115.52 L 370.78000000000003 115.34 L 371.7 115.49000000000001 L 372.62 114.11 L 373.55 114.61 L 374.47 113.72 L 375.39 113.88 L 376.31 111.42 L 377.24 112.44 L 378.16 115.88 L 379.08 113.39 L 380.0 113.11 L 380.93 113.44 L 381.85 113.03 L 382.77 110.62 L 383.69 109.36 L 384.62 110.87 L 385.54 110.2 L 386.46000000000004 110.32000000000001 L 387.38 113.83 L 388.31 113.46000000000001 L 389.23 111.64 L 390.15000000000003 111.98 L 391.07 111.85000000000001 L 392.0 112.95 L 392.92 110.47 L 393.84000000000003 112.93 L 394.76 112.63 L 395.68 112.54 L 396.61 112.13 L 397.53000000000003 112.05 L 398.45 112.79 L 399.37 111.41 L 400.3 110.51 L 401.22 109.82000000000001 L 402.14 108.67 L 403.06 108.48 L 403.99 109.06 L 404.91 105.42 L 405.83 108.56 L 406.75 108.01 L 407.68 109.4 L 408.6 113.5 L 409.52 111.19 L 410.44 110.29 L 411.37 111.54 L 412.29 112.43 L 413.21000000000004 111.52 L 414.13 112.23 L 415.06 109.55 L 415.98 111.85000000000001 L 416.90000000000003 111.64 L 417.82 110.28 L 418.74 111.04 L 419.67 110.3 L 420.59000000000003 111.51 L 421.51 110.68 L 422.43 111.10000000000001 L 423.36 110.06 L 424.28000000000003 109.56 L 425.2 110.21000000000001 L 426.12 109.81 L 427.05 110.89 L 427.97 110.92 L 428.89 110.94 L 429.81 109.87 L 430.74 109.43 L 431.66 109.54 L 432.58 108.52 L 433.5 109.03 L 434.43 109.73 L 435.35 109.42 L 436.27 107.98 L 437.19 110.71000000000001 L 438.12 108.49000000000001 L 439.04 109.15 L 439.96000000000004 109.18 L 440.88 110.44 L 441.8 109.54 L 442.73 110.79 L 443.65000000000003 111.32000000000001 L 444.57 109.98 L 445.49 110.76 L 446.42 109.46000000000001 L 447.34000000000003 108.54 L 448.26 110.63 L 449.18 108.3 L 450.11 108.52 L 451.03000000000003 109.72 L 451.95 108.42 L 452.87 109.07000000000001 L 453.8 107.33 L 454.72 108.71000000000001 L 455.64 106.74000000000001 L 456.56 104.26 L 457.49 106.16 L 458.41 105.61 L 459.33 105.65 L 460.25 105.84 L 461.18 106.47 L 462.1 105.03 L 463.02 105.15 L 463.94 105.13 L 464.86 105.36 L 465.79 102.76 L 466.71000000000004 104.95 L 467.63 107.2 L 468.55 106.99000000000001 L 469.48 107.25 L 470.40000000000003 107.28 L 471.32 107.19 L 472.24 106.67 L 473.17 108.06 L 474.09000000000003 106.9 L 475.01 109.25 L 475.93 109.12 L 476.86 109.60000000000001 L 477.78000000000003 109.17 L 478.7 108.43 L 479.62 112.34 L 480.55 114.52 L 481.47 115.04 L 482.39 115.07000000000001 L 483.31 114.07000000000001 L 484.24 116.61 L 485.16 117.36 L 486.08 116.11 L 487.0 118.22 L 487.92 118.59 L 488.85 119.54 L 489.77 121.17 L 490.69 122.5 L 491.61 120.8 L 492.54 120.4 L 493.46000000000004 120.49000000000001 L 494.38 123.34 L 495.3 122.87 L 496.23 122.54 L 497.15000000000003 121.41 L 498.07 122.78 L 498.99 122.12 L 499.92 125.37 L 500.84000000000003 124.24000000000001 L 501.76 124.92 L 502.68 124.87 L 503.61 125.43 L 504.53000000000003 123.36 L 505.45 124.44 L 506.37 124.45 L 507.3 124.52 L 508.22 124.72 L 509.14 126.64 L 510.06 127.73 L 510.98 128.14000000000001 L 511.91 129.45 L 512.83 124.92 L 513.75 123.94 L 514.67 124.89 L 515.6 124.75 L 516.52 124.10000000000001 L 517.44 125.29 L 518.36 125.61 L 519.29 123.68 L 520.21 125.51 L 521.13 126.18 L 522.05 126.51 L 522.98 126.65 L 523.9 126.15 L 524.82 125.29 L 525.74 127.76 L 526.67 127.88000000000001 L 527.59 126.15 L 528.51 127.34 L 529.4300000000001 130.02 L 530.36 128.03 L 531.28 126.98 L 532.2 128.03 L 533.12 127.29 L 534.04 125.83 L 534.97 126.96000000000001 L 535.89 125.58 L 536.8100000000001 125.58 L 537.73 128.09 L 538.66 126.36 L 539.58 127.57000000000001 L 540.5 126.99000000000001 L 541.42 127.92 L 542.35 126.48 L 543.27 129.16 L 544.19 129.32 L 545.11 129.9 L 546.04 129.06 L 546.96 128.76 L 547.88 128.12 L 548.8000000000001 131.54 L 549.73 131.58 L 550.65 132.89000000000001 L 551.57 133.67000000000002 L 552.49 133.5 L 553.42 133.09 L 554.34 134.2 L 555.26 134.65 L 556.1800000000001 133.98 L 557.1 135.58 L 558.03 136.68 L 558.95 138.27 L 559.87 138.20000000000002 L 560.79 136.83 L 561.72 138.35 L 562.64 136.98 L 563.5600000000001 137.89000000000001 L 564.48 137.36 L 565.41 138.85 L 566.33 139.09 L 567.25 138.84 L 568.17 139.39000000000001 L 569.1 138.88 L 570.02 140.49 L 570.94 143.26 L 571.86 141.57 L 572.79 142.33 L 573.71 144.61 L 574.63 144.03 L 575.5500000000001 143.66 L 576.48 147.43 L 577.4 146.18 L 578.32 147.33 L 579.24 146.94 L 580.16 148.85 L 581.09 147.70000000000002 L 582.01 146.99 L 582.9300000000001 147.04 L 583.85 146.73 L 584.78 148.41 L 585.7 146.24 L 586.62 148.93 L 587.54 149.51 L 588.47 150.31 L 589.39 150.1 L 590.3100000000001 151.02 L 591.23 149.09 L 592.16 150.66 L 593.08 151.65 L 594.0 152.12 L 594.92 152.1 L 595.85 152.13 L 596.77 151.83 L 597.69 148.93 L 598.61 150.01 L 599.54 150.68 L 600.46 149.53 L 601.38 149.47 L 602.3000000000001 153.5 L 603.22 154.22 L 604.15 155.35 L 605.07 155.22 L 605.99 155.88 L 606.91 154.04 L 607.84 155.54 L 608.76 156.42000000000002 L 609.6800000000001 155.45000000000002 L 610.6 157.42000000000002 L 611.53 158.85 L 612.45 158.18 L 613.37 158.1 L 614.29 158.92000000000002 L 615.22 159.66 L 616.14 158.19 L 617.0600000000001 157.35 L 617.98 157.92000000000002 L 618.91 156.58 L 619.83 155.45000000000002 L 620.75 159.57 L 621.67 158.06 L 622.6 155.88 L 623.52 158.12 L 624.44 157.41 L 625.36 159.02 L 626.28 158.17000000000002 L 627.21 159.48 L 628.13 162.47 L 629.0500000000001 161.45000000000002 L 629.97 162.92000000000002 L 630.9 163.25 L 631.82 163.27 L 632.74 161.95000000000002 L 633.66 161.70000000000002 L 634.59 160.41 L 635.51 159.33 L 636.4300000000001 159.5 L 637.35 160.23 L 638.28 156.47 L 639.2 157.45000000000002 L 640.12 157.33 L 641.04 157.65 L 641.97 158.47 L 642.89 158.89000000000001 L 643.8100000000001 161.01 L 644.73 161.70000000000002 L 645.66 161.61 L 646.58 162.87 L 647.5 162.32 L 648.42 162.97 L 649.34 163.20000000000002 L 650.27 163.1 L 651.19 163.75 L 652.11 163.89000000000001 L 653.03 166.16 L 653.96 165.16 L 654.88 165.14000000000001 L 655.8000000000001 165.56 L 656.72 165.27 L 657.65 167.68 L 658.57 166.84 L 659.49 166.1 L 660.41 165.78 L 661.34 167.35 L 662.26 166.88 L 663.1800000000001 167.6 L 664.1 164.01 L 665.03 164.6 L 665.95 165.19 L 666.87 164.51 L 667.79 165.07 L 668.72 167.1 L 669.64 166.04 L 670.5600000000001 167.18 L 671.48 166.97 L 672.4 167.54 L 673.33 168.14000000000001 L 674.25 167.53 L 675.17 170.05 L 676.09 169.77 L 677.02 168.86 L 677.94 170.35 L 678.86 168.07 L 679.78 168.56 L 680.71 169.94 L 681.63 169.65 L 682.5500000000001 169.16 L 683.47 170.81 L 684.4 172.27 L 685.32 170.93 L 686.24 172.52 L 687.16 172.63 L 688.09 150.21 L 689.01 148.94 L 689.9300000000001 150.55 L 690.85 151.16 L 691.78 151.8 L 692.7 147.55 L 693.62 147.75 L 694.54 146.53 L 695.46 147.20000000000002 L 696.39 148.21 L 697.3100000000001 148.76 L 698.23 149.32 L 699.15 149.36 L 700.08 150.84 L 701.0 151.62 L 701.92 151.86 L 702.84 154.63 L 703.77 154.56 L 704.69 157.26 L 705.61 158.72 L 706.53 158.64000000000001 L 707.46 158.85 L 708.38 161.49 L 709.3000000000001 161.15 L 710.22 162.92000000000002 L 711.15 163.38 L 712.07 163.89000000000001 L 712.99 164.12 L 713.91 164.17000000000002 L 714.84 164.57 L 715.76 166.22 L 716.6800000000001 166.48 L 717.6 167.87 L 718.52 167.99 L 719.45 168.01 L 720.37 171.96 L 721.29 171.3 L 722.21 172.41 L 723.14 172.68 L 724.0600000000001 172.64000000000001 L 724.98 174.15 L 725.9 174.62 L 726.83 176.15 L 727.75 176.34 L 728.67 176.59 L 729.59 176.75 L 730.52 178.70000000000002 L 731.44 179.74 L 732.36 179.28 L 733.28 180.08 L 734.21 180.15 L 735.13 181.19 L 736.0500000000001 181.91 L 736.97 182.39000000000001 L 737.9 182.21 L 738.82 184.27 L 739.74 184.49 L 740.66 184.72 L 741.58 185.42000000000002 L 742.51 186.42000000000002 L 743.4300000000001 186.55 L 744.35 186.6 L 745.27 187.04 L 746.2 187.72 L 747.12 187.99 L 748.04 188.42000000000002 L 748.96 189.03 L 749.89 189.02 L 750.8100000000001 190.32 L 751.73 190.92000000000002 L 752.65 191.72 L 753.58 192.74 L 754.5 192.65 L 755.42 195.24 L 756.34 193.31 L 757.27 194.46 L 758.19 194.43 L 759.11 194.6 L 760.03 194.74 L 760.96 195.44 L 761.88 196.02 L 762.8000000000001 195.77 L 763.72 196.64000000000001 L 764.64 197.32 L 765.57 198.38 L 766.49 197.85 L 767.41 201.8 L 768.33 200.93 L 769.26 201.04 L 770.1800000000001 202.5 L 771.1 201.53 L 772.02 201.4 L 772.95 203.41 L 773.87 205.84 L 774.79 207.36 L 775.71 208.11 L 776.64 209.38 L 777.5600000000001 208.14000000000001 L 778.48 210.1 L 779.4 223.75 L 780.33 211.33 L 781.25 210.44 L 782.1700000000001 210.81 L 783.09 212.82 L 784.02 214.9 L 784.94 214.57 L 785.86 215.81 L 786.78 215.24 L 787.7 216.21 L 788.63 216.24 L 789.5500000000001 217.38 L 790.47 218.09 L 791.39 218.20000000000002 L 792.32 218.42000000000002 L 793.24 219.93 L 794.16 220.59 L 795.08 221.20000000000002 L 796.01 222.53 L 796.9300000000001 222.56 L 797.85 224.49 L 798.77 224.82 L 799.7 225.32 L 800.62 228.29 L 801.54 229.06 L 802.46 236.12 L 803.39 236.55 L 804.3100000000001 237.51 L 805.23 235.81 L 806.15 234.77 L 807.08 235.13 L 808.0 237.44 L 808.9200000000001 238.68 L 809.84 238.85 L 810.76 239.12 L 811.69 239.75 L 812.61 241.48000000000002 L 813.53 241.54 L 814.45 244.81 L 815.38 245.29 L 816.3000000000001 245.99 L 817.22 249.67000000000002 L 818.14 250.38 L 819.07 250.53 L 819.99 252.38 L 820.91 252.92000000000002 L 821.83 254.25 L 822.76 257.2 L 823.6800000000001 263.08 L 824.6 275.96 L 825.52 277.49 L 826.45 309.44 L 827.37 311.74 L 828.29 311.97 L 829.21 313.22 L 830.14 318.68 L 830.1352 329 L 71.9224 329 Z" stroke="none" stroke-width="0" fill="#000000" fill-opacity="0.3" /><path d="M 71.92 316.77 L 72.84 315.88 L 73.77 315.53000000000003 L 74.69 315.51 L 75.61 315.48 L 76.53 315.47 L 77.46000000000001 315.47 L 78.38 315.48 L 79.3 315.47 L 80.22 315.5 L 81.15 315.47 L 82.07000000000001 315.47 L 82.99 315.48 L 83.91 315.47 L 84.84 315.47 L 85.76 315.47 L 86.68 315.47 L 87.60000000000001 315.47 L 88.53 315.47 L 89.45 315.48 L 90.37 315.47 L 91.29 315.47 L 92.22 315.47 L 93.14 315.47 L 94.06 315.47 L 94.98 315.47 L 95.9 315.47 L 96.83 325.43 L 97.75 325.35 L 98.67 325.35 L 99.59 328.88 L 100.52 328.88 L 101.44 328.86 L 102.36 328.79 L 103.28 328.78000000000003 L 104.21000000000001 328.77 L 105.13 328.18 L 106.05 327.91 L 106.97 314.40000000000003 L 107.9 304.34000000000003 L 108.82000000000001 256.95 L 109.74000000000001 235.67000000000002 L 110.66 234.34 L 111.59 212.51 L 112.51 196.15 L 113.43 193.21 L 114.35000000000001 153.32 L 115.28 152.12 L 116.2 133.27 L 117.12 131.15 L 118.04 130.3 L 118.96000000000001 129.96 L 119.89 128.6 L 120.81 126.2 L 121.73 126.08 L 122.65 125.55 L 123.58 123.31 L 124.5 122.17 L 125.42 121.87 L 126.34 120.63 L 127.27 119.85000000000001 L 128.19 118.72 L 129.11 118.44 L 130.03 119.86 L 130.96 119.73 L 131.88 119.59 L 132.8 120.05 L 133.72 119.69 L 134.65 119.5 L 135.57 118.93 L 136.49 118.85000000000001 L 137.41 118.27 L 138.34 117.5 L 139.26 116.97 L 140.18 116.49000000000001 L 141.1 116.39 L 142.02 116.07000000000001 L 142.95000000000002 115.63 L 143.87 115.32000000000001 L 144.79 114.32000000000001 L 145.71 113.88 L 146.64000000000001 113.57000000000001 L 147.56 113.45 L 148.48 113.27 L 149.4 111.44 L 150.33 111.43 L 151.25 110.44 L 152.17000000000002 110.22 L 153.09 113.49000000000001 L 154.02 116.95 L 154.94 114.91 L 155.86 115.49000000000001 L 156.78 109.41 L 157.71 109.97 L 158.63 111.36 L 159.55 106.88 L 160.47 114.94 L 161.4 104.54 L 162.32 108.69 L 163.24 103.97 L 164.16 102.87 L 165.08 102.87 L 166.01 102.71000000000001 L 166.93 101.44 L 167.85 100.65 L 168.77 100.63 L 169.70000000000002 100.16 L 170.62 98.7 L 171.54 98.52 L 172.46 97.98 L 173.39000000000001 95.24 L 174.31 95.0 L 175.23 94.98 L 176.15 94.43 L 177.08 92.8 L 178.0 92.7 L 178.92000000000002 92.62 L 179.84 92.63 L 180.77 92.09 L 181.69 91.32000000000001 L 182.61 90.52 L 183.53 89.31 L 184.46 89.25 L 185.38 88.29 L 186.3 87.96000000000001 L 187.22 87.4 L 188.14000000000001 86.88 L 189.07 86.92 L 189.99 86.09 L 190.91 85.99 L 191.83 84.9 L 192.76 84.76 L 193.68 84.48 L 194.6 82.36 L 195.52 81.97 L 196.45000000000002 81.09 L 197.37 81.01 L 198.29 79.44 L 199.21 79.26 L 200.14000000000001 79.05 L 201.06 76.61 L 201.98000000000002 76.53 L 202.9 76.0 L 203.83 75.44 L 204.75 75.65 L 205.67000000000002 74.02 L 206.59 73.61 L 207.52 71.87 L 208.44 71.06 L 209.36 70.83 L 210.28 70.58 L 211.20000000000002 69.46000000000001 L 212.13 68.4 L 213.05 67.62 L 213.97 67.18 L 214.89000000000001 66.71000000000001 L 215.82 65.93 L 216.74 65.95 L 217.66 64.56 L 218.58 62.38 L 219.51 61.95 L 220.43 60.980000000000004 L 221.35 60.800000000000004 L 222.27 60.5 L 223.20000000000002 60.86 L 224.12 60.78 L 225.04 60.800000000000004 L 225.96 60.85 L 226.89000000000001 60.550000000000004 L 227.81 59.78 L 228.73000000000002 58.800000000000004 L 229.65 58.94 L 230.58 57.72 L 231.5 57.9 L 232.42000000000002 55.21 L 233.34 52.13 L 234.26 52.84 L 235.19 52.14 L 236.11 52.4 L 237.03 51.82 L 237.95000000000002 49.730000000000004 L 238.88 51.83 L 239.8 50.81 L 240.72 53.56 L 241.64000000000001 53.27 L 242.57 53.730000000000004 L 243.49 53.63 L 244.41 57.04 L 245.33 67.14 L 246.26000000000002 85.84 L 247.18 84.19 L 248.1 88.64 L 249.02 88.61 L 249.95000000000002 95.01 L 250.87 94.57000000000001 L 251.79 106.22 L 252.71 106.44 L 253.64000000000001 105.91 L 254.56 113.24000000000001 L 255.48000000000002 110.3 L 256.4 111.0 L 257.32 111.37 L 258.25 113.21000000000001 L 259.17 115.62 L 260.09000000000003 111.24000000000001 L 261.01 112.32000000000001 L 261.94 113.03 L 262.86 113.39 L 263.78000000000003 113.85000000000001 L 264.7 114.15 L 265.63 113.54 L 266.55 116.99000000000001 L 267.47 113.97 L 268.39 111.59 L 269.32 110.61 L 270.24 108.44 L 271.16 112.28 L 272.08 110.75 L 273.01 108.19 L 273.93 108.47 L 274.85 107.7 L 275.77 107.63 L 276.7 106.17 L 277.62 106.37 L 278.54 108.43 L 279.46 107.67 L 280.38 111.42 L 281.31 110.64 L 282.23 110.88 L 283.15000000000003 109.53 L 284.07 111.31 L 285.0 109.09 L 285.92 111.0 L 286.84000000000003 112.11 L 287.76 110.59 L 288.69 111.62 L 289.61 112.45 L 290.53000000000003 109.37 L 291.45 110.79 L 292.38 112.06 L 293.3 110.88 L 294.22 111.73 L 295.14 110.83 L 296.07 112.07000000000001 L 296.99 111.61 L 297.91 112.29 L 298.83 112.84 L 299.76 110.39 L 300.68 109.86 L 301.6 111.72 L 302.52 111.96000000000001 L 303.44 110.73 L 304.37 110.37 L 305.29 112.54 L 306.21 115.95 L 307.13 114.89 L 308.06 114.62 L 308.98 114.53 L 309.90000000000003 115.94 L 310.82 116.16 L 311.75 116.92 L 312.67 115.48 L 313.59000000000003 118.38 L 314.51 119.57000000000001 L 315.44 118.83 L 316.36 119.54 L 317.28000000000003 118.54 L 318.2 118.0 L 319.13 119.52 L 320.05 118.04 L 320.97 119.03 L 321.89 119.85000000000001 L 322.82 122.12 L 323.74 120.9 L 324.66 122.12 L 325.58 120.35000000000001 L 326.5 120.63 L 327.43 120.88 L 328.35 119.2 L 329.27 120.21000000000001 L 330.19 119.73 L 331.12 120.99000000000001 L 332.04 119.4 L 332.96 119.52 L 333.88 120.24000000000001 L 334.81 117.94 L 335.73 119.05 L 336.65000000000003 119.13 L 337.57 117.76 L 338.5 116.24000000000001 L 339.42 118.94 L 340.34000000000003 120.45 L 341.26 117.23 L 342.19 114.61 L 343.11 115.73 L 344.03000000000003 117.57000000000001 L 344.95 115.92 L 345.88 116.52 L 346.8 116.3 L 347.72 114.74000000000001 L 348.64 113.88 L 349.56 118.46000000000001 L 350.49 119.05 L 351.41 119.08 L 352.33 116.97 L 353.25 118.83 L 354.18 120.14 L 355.1 119.93 L 356.02 119.09 L 356.94 119.62 L 357.87 120.16 L 358.79 122.72 L 359.71 120.92 L 360.63 122.8 L 361.56 121.18 L 362.48 111.75 L 363.40000000000003 113.57000000000001 L 364.32 115.23 L 365.25 114.07000000000001 L 366.17 114.76 L 367.09000000000003 113.38 L 368.01 112.74000000000001 L 368.94 114.3 L 369.86 115.52 L 370.78000000000003 115.34 L 371.7 115.49000000000001 L 372.62 114.11 L 373.55 114.61 L 374.47 113.72 L 375.39 113.88 L 376.31 111.42 L 377.24 112.44 L 378.16 115.88 L 379.08 113.39 L 380.0 113.11 L 380.93 113.44 L 381.85 113.03 L 382.77 110.62 L 383.69 109.36 L 384.62 110.87 L 385.54 110.2 L 386.46000000000004 110.32000000000001 L 387.38 113.83 L 388.31 113.46000000000001 L 389.23 111.64 L 390.15000000000003 111.98 L 391.07 111.85000000000001 L 392.0 112.95 L 392.92 110.47 L 393.84000000000003 112.93 L 394.76 112.63 L 395.68 112.54 L 396.61 112.13 L 397.53000000000003 112.05 L 398.45 112.79 L 399.37 111.41 L 400.3 110.51 L 401.22 109.82000000000001 L 402.14 108.67 L 403.06 108.48 L 403.99 109.06 L 404.91 105.42 L 405.83 108.56 L 406.75 108.01 L 407.68 109.4 L 408.6 113.5 L 409.52 111.19 L 410.44 110.29 L 411.37 111.54 L 412.29 112.43 L 413.21000000000004 111.52 L 414.13 112.23 L 415.06 109.55 L 415.98 111.85000000000001 L 416.90000000000003 111.64 L 417.82 110.28 L 418.74 111.04 L 419.67 110.3 L 420.59000000000003 111.51 L 421.51 110.68 L 422.43 111.10000000000001 L 423.36 110.06 L 424.28000000000003 109.56 L 425.2 110.21000000000001 L 426.12 109.81 L 427.05 110.89 L 427.97 110.92 L 428.89 110.94 L 429.81 109.87 L 430.74 109.43 L 431.66 109.54 L 432.58 108.52 L 433.5 109.03 L 434.43 109.73 L 435.35 109.42 L 436.27 107.98 L 437.19 110.71000000000001 L 438.12 108.49000000000001 L 439.04 109.15 L 439.96000000000004 109.18 L 440.88 110.44 L 441.8 109.54 L 442.73 110.79 L 443.65000000000003 111.32000000000001 L 444.57 109.98 L 445.49 110.76 L 446.42 109.46000000000001 L 447.34000000000003 108.54 L 448.26 110.63 L 449.18 108.3 L 450.11 108.52 L 451.03000000000003 109.72 L 451.95 108.42 L 452.87 109.07000000000001 L 453.8 107.33 L 454.72 108.71000000000001 L 455.64 106.74000000000001 L 456.56 104.26 L 457.49 106.16 L 458.41 105.61 L 459.33 105.65 L 460.25 105.84 L 461.18 106.47 L 462.1 105.03 L 463.02 105.15 L 463.94 105.13 L 464.86 105.36 L 465.79 102.76 L 466.71000000000004 104.95 L 467.63 107.2 L 468.55 106.99000000000001 L 469.48 107.25 L 470.40000000000003 107.28 L 471.32 107.19 L 472.24 106.67 L 473.17 108.06 L 474.09000000000003 106.9 L 475.01 109.25 L 475.93 109.12 L 476.86 109.60000000000001 L 477.78000000000003 109.17 L 478.7 108.43 L 479.62 112.34 L 480.55 114.52 L 481.47 115.04 L 482.39 115.07000000000001 L 483.31 114.07000000000001 L 484.24 116.61 L 485.16 117.36 L 486.08 116.11 L 487.0 118.22 L 487.92 118.59 L 488.85 119.54 L 489.77 121.17 L 490.69 122.5 L 491.61 120.8 L 492.54 120.4 L 493.46000000000004 120.49000000000001 L 494.38 123.34 L 495.3 122.87 L 496.23 122.54 L 497.15000000000003 121.41 L 498.07 122.78 L 498.99 122.12 L 499.92 125.37 L 500.84000000000003 124.24000000000001 L 501.76 124.92 L 502.68 124.87 L 503.61 125.43 L 504.53000000000003 123.36 L 505.45 124.44 L 506.37 124.45 L 507.3 124.52 L 508.22 124.72 L 509.14 126.64 L 510.06 127.73 L 510.98 128.14000000000001 L 511.91 129.45 L 512.83 124.92 L 513.75 123.94 L 514.67 124.89 L 515.6 124.75 L 516.52 124.10000000000001 L 517.44 125.29 L 518.36 125.61 L 519.29 123.68 L 520.21 125.51 L 521.13 126.18 L 522.05 126.51 L 522.98 126.65 L 523.9 126.15 L 524.82 125.29 L 525.74 127.76 L 526.67 127.88000000000001 L 527.59 126.15 L 528.51 127.34 L 529.4300000000001 130.02 L 530.36 128.03 L 531.28 126.98 L 532.2 128.03 L 533.12 127.29 L 534.04 125.83 L 534.97 126.96000000000001 L 535.89 125.58 L 536.8100000000001 125.58 L 537.73 128.09 L 538.66 126.36 L 539.58 127.57000000000001 L 540.5 126.99000000000001 L 541.42 127.92 L 542.35 126.48 L 543.27 129.16 L 544.19 129.32 L 545.11 129.9 L 546.04 129.06 L 546.96 128.76 L 547.88 128.12 L 548.8000000000001 131.54 L 549.73 131.58 L 550.65 132.89000000000001 L 551.57 133.67000000000002 L 552.49 133.5 L 553.42 133.09 L 554.34 134.2 L 555.26 134.65 L 556.1800000000001 133.98 L 557.1 135.58 L 558.03 136.68 L 558.95 138.27 L 559.87 138.20000000000002 L 560.79 136.83 L 561.72 138.35 L 562.64 136.98 L 563.5600000000001 137.89000000000001 L 564.48 137.36 L 565.41 138.85 L 566.33 139.09 L 567.25 138.84 L 568.17 139.39000000000001 L 569.1 138.88 L 570.02 140.49 L 570.94 143.26 L 571.86 141.57 L 572.79 142.33 L 573.71 144.61 L 574.63 144.03 L 575.5500000000001 143.66 L 576.48 147.43 L 577.4 146.18 L 578.32 147.33 L 579.24 146.94 L 580.16 148.85 L 581.09 147.70000000000002 L 582.01 146.99 L 582.9300000000001 147.04 L 583.85 146.73 L 584.78 148.41 L 585.7 146.24 L 586.62 148.93 L 587.54 149.51 L 588.47 150.31 L 589.39 150.1 L 590.3100000000001 151.02 L 591.23 149.09 L 592.16 150.66 L 593.08 151.65 L 594.0 152.12 L 594.92 152.1 L 595.85 152.13 L 596.77 151.83 L 597.69 148.93 L 598.61 150.01 L 599.54 150.68 L 600.46 149.53 L 601.38 149.47 L 602.3000000000001 153.5 L 603.22 154.22 L 604.15 155.35 L 605.07 155.22 L 605.99 155.88 L 606.91 154.04 L 607.84 155.54 L 608.76 156.42000000000002 L 609.6800000000001 155.45000000000002 L 610.6 157.42000000000002 L 611.53 158.85 L 612.45 158.18 L 613.37 158.1 L 614.29 158.92000000000002 L 615.22 159.66 L 616.14 158.19 L 617.0600000000001 157.35 L 617.98 157.92000000000002 L 618.91 156.58 L 619.83 155.45000000000002 L 620.75 159.57 L 621.67 158.06 L 622.6 155.88 L 623.52 158.12 L 624.44 157.41 L 625.36 159.02 L 626.28 158.17000000000002 L 627.21 159.48 L 628.13 162.47 L 629.0500000000001 161.45000000000002 L 629.97 162.92000000000002 L 630.9 163.25 L 631.82 163.27 L 632.74 161.95000000000002 L 633.66 161.70000000000002 L 634.59 160.41 L 635.51 159.33 L 636.4300000000001 159.5 L 637.35 160.23 L 638.28 156.47 L 639.2 157.45000000000002 L 640.12 157.33 L 641.04 157.65 L 641.97 158.47 L 642.89 158.89000000000001 L 643.8100000000001 161.01 L 644.73 161.70000000000002 L 645.66 161.61 L 646.58 162.87 L 647.5 162.32 L 648.42 162.97 L 649.34 163.20000000000002 L 650.27 163.1 L 651.19 163.75 L 652.11 163.89000000000001 L 653.03 166.16 L 653.96 165.16 L 654.88 165.14000000000001 L 655.8000000000001 165.56 L 656.72 165.27 L 657.65 167.68 L 658.57 166.84 L 659.49 166.1 L 660.41 165.78 L 661.34 167.35 L 662.26 166.88 L 663.1800000000001 167.6 L 664.1 164.01 L 665.03 164.6 L 665.95 165.19 L 666.87 164.51 L 667.79 165.07 L 668.72 167.1 L 669.64 166.04 L 670.5600000000001 167.18 L 671.48 166.97 L 672.4 167.54 L 673.33 168.14000000000001 L 674.25 167.53 L 675.17 170.05 L 676.09 169.77 L 677.02 168.86 L 677.94 170.35 L 678.86 168.07 L 679.78 168.56 L 680.71 169.94 L 681.63 169.65 L 682.5500000000001 169.16 L 683.47 170.81 L 684.4 172.27 L 685.32 170.93 L 686.24 172.52 L 687.16 172.63 L 688.09 150.21 L 689.01 148.94 L 689.9300000000001 150.55 L 690.85 151.16 L 691.78 151.8 L 692.7 147.55 L 693.62 147.75 L 694.54 146.53 L 695.46 147.20000000000002 L 696.39 148.21 L 697.3100000000001 148.76 L 698.23 149.32 L 699.15 149.36 L 700.08 150.84 L 701.0 151.62 L 701.92 151.86 L 702.84 154.63 L 703.77 154.56 L 704.69 157.26 L 705.61 158.72 L 706.53 158.64000000000001 L 707.46 158.85 L 708.38 161.49 L 709.3000000000001 161.15 L 710.22 162.92000000000002 L 711.15 163.38 L 712.07 163.89000000000001 L 712.99 164.12 L 713.91 164.17000000000002 L 714.84 164.57 L 715.76 166.22 L 716.6800000000001 166.48 L 717.6 167.87 L 718.52 167.99 L 719.45 168.01 L 720.37 171.96 L 721.29 171.3 L 722.21 172.41 L 723.14 172.68 L 724.0600000000001 172.64000000000001 L 724.98 174.15 L 725.9 174.62 L 726.83 176.15 L 727.75 176.34 L 728.67 176.59 L 729.59 176.75 L 730.52 178.70000000000002 L 731.44 179.74 L 732.36 179.28 L 733.28 180.08 L 734.21 180.15 L 735.13 181.19 L 736.0500000000001 181.91 L 736.97 182.39000000000001 L 737.9 182.21 L 738.82 184.27 L 739.74 184.49 L 740.66 184.72 L 741.58 185.42000000000002 L 742.51 186.42000000000002 L 743.4300000000001 186.55 L 744.35 186.6 L 745.27 187.04 L 746.2 187.72 L 747.12 187.99 L 748.04 188.42000000000002 L 748.96 189.03 L 749.89 189.02 L 750.8100000000001 190.32 L 751.73 190.92000000000002 L 752.65 191.72 L 753.58 192.74 L 754.5 192.65 L 755.42 195.24 L 756.34 193.31 L 757.27 194.46 L 758.19 194.43 L 759.11 194.6 L 760.03 194.74 L 760.96 195.44 L 761.88 196.02 L 762.8000000000001 195.77 L 763.72 196.64000000000001 L 764.64 197.32 L 765.57 198.38 L 766.49 197.85 L 767.41 201.8 L 768.33 200.93 L 769.26 201.04 L 770.1800000000001 202.5 L 771.1 201.53 L 772.02 201.4 L 772.95 203.41 L 773.87 205.84 L 774.79 207.36 L 775.71 208.11 L 776.64 209.38 L 777.5600000000001 208.14000000000001 L 778.48 210.1 L 779.4 223.75 L 780.33 211.33 L 781.25 210.44 L 782.1700000000001 210.81 L 783.09 212.82 L 784.02 214.9 L 784.94 214.57 L 785.86 215.81 L 786.78 215.24 L 787.7 216.21 L 788.63 216.24 L 789.5500000000001 217.38 L 790.47 218.09 L 791.39 218.20000000000002 L 792.32 218.42000000000002 L 793.24 219.93 L 794.16 220.59 L 795.08 221.20000000000002 L 796.01 222.53 L 796.9300000000001 222.56 L 797.85 224.49 L 798.77 224.82 L 799.7 225.32 L 800.62 228.29 L 801.54 229.06 L 802.46 236.12 L 803.39 236.55 L 804.3100000000001 237.51 L 805.23 235.81 L 806.15 234.77 L 807.08 235.13 L 808.0 237.44 L 808.9200000000001 238.68 L 809.84 238.85 L 810.76 239.12 L 811.69 239.75 L 812.61 241.48000000000002 L 813.53 241.54 L 814.45 244.81 L 815.38 245.29 L 816.3000000000001 245.99 L 817.22 249.67000000000002 L 818.14 250.38 L 819.07 250.53 L 819.99 252.38 L 820.91 252.92000000000002 L 821.83 254.25 L 822.76 257.2 L 823.6800000000001 263.08 L 824.6 275.96 L 825.52 277.49 L 826.45 309.44 L 827.37 311.74 L 828.29 311.97 L 829.21 313.22 L 830.14 318.68 " stroke="#000000" stroke-width="0.3" fill="none" /><line x1="106.05" y1="10" x2="106.05" y2="329" stroke="#2ca02c" stroke-width="1" stroke-dasharray="8 0" /><line x1="107.9" y1="10" x2="107.9" y2="329" stroke="#2ca02c" stroke-width="1" stroke-dasharray="8 0" /><line x1="110.66" y1="10" x2="110.66" y2="329" stroke="#ff7f0e" stroke-width="1" stroke-dasharray="8 0" /><line x1="127.27" y1="10" x2="127.27" y2="329" stroke="#1f77b4" stroke-width="1" stroke-dasharray="8 0" /><line x1="354.18" y1="10" x2="354.18" y2="329" stroke="#d62728" stroke-width="1" stroke-dasharray="8 0" /><line x1="472.24" y1="10" x2="472.24" y2="329" stroke="#d62728" stroke-width="1" stroke-dasharray="8 0" /><line x1="824.6" y1="10" x2="824.6" y2="329" stroke="#d62728" stroke-width="1" stroke-dasharray="8 0" /><text x="124.96000000000001" y="322.45" font-size="12" text-anchor="middle">G</text><text x="126.81" y="311.14" font-size="12" text-anchor="middle">G</text><text x="129.57" y="276.6" font-size="12" text-anchor="middle">C</text><text x="146.18" y="218.89000000000001" font-size="12" text-anchor="middle">A</text><text x="373.09000000000003" y="218.57" font-size="12" text-anchor="middle">T</text><text x="491.15000000000003" y="211.83" font-size="12" text-anchor="middle">T</text><text x="843.51" y="296.48" font-size="12" text-anchor="middle">T</text></g></g><g transform="translate(10,405)"><line x1="71" y1="249.25" x2="1001" y2="249.25" stroke="#cccccc" stroke-width="1" /><line x1="71" y1="169.5" x2="1001" y2="169.5" stroke="#cccccc" stroke-width="1" /><line x1="71" y1="89.75" x2="1001" y2="89.75" stroke="#cccccc" stroke-width="1" /><line x1="71" y1="10" x2="1001" y2="10" stroke="#cccccc" stroke-width="1" /><line x1="71" y1="329" x2="1001" y2="329" stroke="#000000" stroke-width="1" /><line x1="71" y1="10" x2="71" y2="329" stroke="#000000" stroke-width="1" /><text x="164" y="346" font-size="12" text-anchor="middle">exp. err. = 5.10E-3</text><line x1="164" y1="329" x2="164" y2="334" stroke="#000000" stroke-width="1" /><text x="257" y="346" font-size="12" text-anchor="middle">A2G</text><line x1="257" y1="329" x2="257" y2="334" stroke="#000000" stroke-width="1" /><text x="350" y="346" font-size="12" text-anchor="middle">A2G</text><line x1="350" y1="329" x2="350" y2="334" stroke="#000000" stroke-width="1" /><text x="443" y="346" font-size="12" text-anchor="middle">T2C</text><line x1="443" y1="329" x2="443" y2="334" stroke="#000000" stroke-width="1" /><text x="536" y="346" font-size="12" text-anchor="middle">G2A</text><line x1="536" y1="329" x2="536" y2="334" stroke="#000000" stroke-width="1" /><text x="629" y="346" font-size="12" text-anchor="middle">A2T</text><line x1="629" y1="329" x2="629" y2="334" stroke="#000000" stroke-width="1" /><text x="722" y="346" font-size="12" text-anchor="middle">G2T</text><line x1="722" y1="329" x2="722" y2="334" stroke="#000000" stroke-width="1" /><text x="815" y="346" font-size="12" text-anchor="middle">C2T</text><line x1="815" y1="329" x2="815" y2="334" stroke="#000000" stroke-width="1" /><line x1="66" y1="329" x2="71" y2="329" stroke="#000000" stroke-width="1" /><text x="63" y="333.2" font-size="12" text-anchor="end">0.000</text><line x1="66" y1="249.25" x2="71" y2="249.25" stroke="#000000" stroke-width="1" /><text x="63" y="253.45000000000002" font-size="12" text-anchor="end">0.100</text><line x1="66" y1="169.5" x2="71" y2="169.5" stroke="#000000" stroke-width="1" /><text x="63" y="173.70000000000002" font-size="12" text-anchor="end">0.200</text><line x1="66" y1="89.75" x2="71" y2="89.75" stroke="#000000" stroke-width="1" /><text x="63" y="93.95" font-size="12" text-anchor="end">0.300</text><line x1="66" y1="10" x2="71" y2="10" stroke="#000000" stroke-width="1" /><text x="63" y="14.200000000000001" font-size="12" text-anchor="end">0.400</text><text x="536" y="373" font-size="14" text-anchor="middle">Minor Variants</text><text x="15" y="190" font-size="14" text-anchor="middle" transform="rotate(-90,15,190)">Observed Frequency</text><g clip-path="url(#kuva-clip-14)"><rect x="126.8" y="324.93" width="74.4" height="4.07" fill="#000000" /><rect x="219.8" y="255.9" width="74.4" height="73.10000000000001" fill="#2ca02c" /><rect x="312.8" y="320.45" width="74.4" height="8.55" fill="#2ca02c" /><rect x="405.8" y="246.07" width="74.4" height="82.93" fill="#ff7f0e" /><rect x="498.8" y="32.77" width="74.4" height="296.23" fill="#1f77b4" /><rect x="591.8000000000001" y="319.67" width="74.4" height="9.33" fill="#d62728" /><rect x="684.8000000000001" y="321.77" width="74.4" height="7.23" fill="#d62728" /><rect x="777.8000000000001" y="240.88" width="74.4" height="88.12" fill="#d62728" /><line x1="71" y1="324.93" x2="1001" y2="324.93" stroke="#000000" stroke-width="1" stroke-dasharray="6 4" /><text x="257" y="286.45" font-size="12" text-anchor="middle">38</text><text x="350" y="318.73" font-size="12" text-anchor="middle">40</text><text x="443" y="281.54" font-size="12" text-anchor="middle">43</text><text x="536" y="174.88" font-size="12" text-anchor="middle">61</text><text x="629" y="318.34000000000003" font-size="12" text-anchor="middle">307</text><text x="722" y="319.39" font-size="12" text-anchor="middle">435</text><text x="815" y="278.94" font-size="12" text-anchor="middle">817</text></g></g></svg>