<svg xmlns="http://www.w3.org/2000/svg" width="1520" height="780" font-family="DejaVu Sans, Liberation Sans, Arial, sans-serif" fill="black"><rect width="100%" height="100%" fill="white" /><defs><clipPath id="kuva-clip-13"><rect x="83" y="51" width="813" height="650"/></clipPath></defs><g transform="translate(10,10)"><text x="250" y="46.7" font-size="31" text-anchor="middle">Variant site clusters</text><line x1="132.1" y1="138.98" x2="405.52" y2="138.98" stroke="#000000" stroke-width="1.5" /><line x1="132.1" y1="217.34" x2="405.52" y2="217.34" stroke="#000000" stroke-width="1.5" /><line x1="165.75" y1="530.76" x2="405.52" y2="530.76" stroke="#000000" stroke-width="1.5" /><line x1="137.21" y1="452.41" x2="405.52" y2="452.41" stroke="#000000" stroke-width="1.5" /><line x1="127.46000000000001" y1="374.05" x2="405.52" y2="374.05" stroke="#000000" stroke-width="1.5" /><line x1="126.38000000000001" y1="295.69" x2="405.52" y2="295.69" stroke="#000000" stroke-width="1.5" /><line x1="165.75" y1="609.12" x2="405.52" y2="609.12" stroke="#000000" stroke-width="1.5" /><line x1="137.21" y1="569.94" x2="165.75" y2="569.94" stroke="#000000" stroke-width="1.5" /><line x1="127.46000000000001" y1="511.18" x2="137.21" y2="511.18" stroke="#000000" stroke-width="1.5" /><line x1="125.3" y1="178.16" x2="132.1" y2="178.16" stroke="#000000" stroke-width="1.5" /><line x1="126.38000000000001" y1="442.61" x2="127.46000000000001" y2="442.61" stroke="#000000" stroke-width="1.5" /><line x1="125.3" y1="369.15000000000003" x2="126.38000000000001" y2="369.15000000000003" stroke="#000000" stroke-width="1.5" /><line x1="165.75" y1="530.76" x2="165.75" y2="609.12" stroke="#000000" stroke-width="1.5" /><line x1="137.21" y1="452.41" x2="137.21" y2="569.94" stroke="#000000" stroke-width="1.5" /><line x1="132.1" y1="138.98" x2="132.1" y2="217.34" stroke="#000000" stroke-width="1.5" /><line x1="127.46000000000001" y1="374.05" x2="127.46000000000001" y2="511.18" stroke="#000000" stroke-width="1.5" /><line x1="126.38000000000001" y1="295.69" x2="126.38000000000001" y2="442.61" stroke="#000000" stroke-width="1.5" /><line x1="125.3" y1="178.16" x2="125.3" y2="369.15000000000003" stroke="#000000" stroke-width="1.5" /><circle cx="125.3" cy="273.65000000000003" r="3" fill="#000000" /><text x="411.52" y="138.98" font-size="11" text-anchor="start"></text><text x="411.52" y="217.34" font-size="11" text-anchor="start"></text><text x="411.52" y="295.69" font-size="11" text-anchor="start"></text><text x="411.52" y="374.05" font-size="11" text-anchor="start"></text><text x="411.52" y="452.41" font-size="11" text-anchor="start"></text><text x="411.52" y="530.76" font-size="11" text-anchor="start"></text><text x="411.52" y="609.12" font-size="11" text-anchor="start"></text><line x1="186.16" y1="74.8" x2="186.16" y2="673.3000000000001" stroke="#ff0000" stroke-width="1" stroke-dasharray="6 4" /><text x="190.16" y="86.8" font-size="20" text-anchor="start">cutoff = 0.78</text></g><g transform="translate(510,10)"><line x1="83" y1="701" x2="896" y2="701" stroke="#000000" stroke-width="0" /><line x1="83" y1="51" x2="83" y2="701" stroke="#000000" stroke-width="0" /><text x="75" y="626.75" font-size="20" text-anchor="end">817T</text><line x1="78" y1="619.75" x2="83" y2="619.75" stroke="#000000" stroke-width="0" /><text x="75" y="545.5" font-size="20" text-anchor="end">43C</text><line x1="78" y1="538.5" x2="83" y2="538.5" stroke="#000000" stroke-width="0" /><text x="75" y="464.25" font-size="20" text-anchor="end">61A</text><line x1="78" y1="457.25" x2="83" y2="457.25" stroke="#000000" stroke-width="0" /><text x="75" y="383" font-size="20" text-anchor="end">307T</text><line x1="78" y1="376" x2="83" y2="376" stroke="#000000" stroke-width="0" /><text x="75" y="301.75" font-size="20" text-anchor="end">435T</text><line x1="78" y1="294.75" x2="83" y2="294.75" stroke="#000000" stroke-width="0" /><text x="75" y="220.5" font-size="20" text-anchor="end">40G</text><line x1="78" y1="213.5" x2="83" y2="213.5" stroke="#000000" stroke-width="0" /><text x="75" y="139.25" font-size="20" text-anchor="end">38G</text><line x1="78" y1="132.25" x2="83" y2="132.25" stroke="#000000" stroke-width="0" /><text x="184.63" y="726" font-size="20" text-anchor="middle">38G</text><line x1="184.63" y1="701" x2="184.63" y2="706" stroke="#000000" stroke-width="0" /><text x="286.25" y="726" font-size="20" text-anchor="middle">40G</text><line x1="286.25" y1="701" x2="286.25" y2="706" stroke="#000000" stroke-width="0" /><text x="387.88" y="726" font-size="20" text-anchor="middle">435T</text><line x1="387.88" y1="701" x2="387.88" y2="706" stroke="#000000" stroke-width="0" /><text x="489.5" y="726" font-size="20" text-anchor="middle">307T</text><line x1="489.5" y1="701" x2="489.5" y2="706" stroke="#000000" stroke-width="0" /><text x="591.13" y="726" font-size="20" text-anchor="middle">61A</text><line x1="591.13" y1="701" x2="591.13" y2="706" stroke="#000000" stroke-width="0" /><text x="692.75" y="726" font-size="20" text-anchor="middle">43C</text><line x1="692.75" y1="701" x2="692.75" y2="706" stroke="#000000" stroke-width="0" /><text x="794.38" y="726" font-size="20" text-anchor="middle">817T</text><line x1="794.38" y1="701" x2="794.38" y2="706" stroke="#000000" stroke-width="0" /><text x="500" y="33" font-size="25" text-anchor="middle">A_NA_N1-EXPENRD.sqm</text><g clip-path="url(#kuva-clip-13)"><rect x="133.81" y="579.13" width="100.61" height="80.44" fill="#f3f2f2" /><rect x="235.44" y="579.13" width="100.61" height="80.44" fill="#f3f2f2" /><rect x="337.06" y="579.13" width="100.61" height="80.44" fill="#f3eded" /><rect x="438.69" y="579.13" width="100.61" height="80.44" fill="#f3f2f2" /><rect x="540.3100000000001" y="579.13" width="100.61" height="80.44" fill="#f3f2f2" /><rect x="641.94" y="579.13" width="100.61" height="80.44" fill="#f4cfcf" /><rect x="743.5600000000001" y="579.13" width="100.61" height="80.44" fill="#ff0000" /><rect x="133.81" y="497.88" width="100.61" height="80.44" fill="#f3f2f2" /><rect x="235.44" y="497.88" width="100.61" height="80.44" fill="#f3f2f2" /><rect x="337.06" y="497.88" width="100.61" height="80.44" fill="#f3f2f2" /><rect x="438.69" y="497.88" width="100.61" height="80.44" fill="#f3efef" /><rect x="540.3100000000001" y="497.88" width="100.61" height="80.44" fill="#f4dddd" /><rect x="641.94" y="497.88" width="100.61" height="80.44" fill="#ff0000" /><rect x="743.5600000000001" y="497.88" width="100.61" height="80.44" fill="#f4cfcf" /><rect x="133.81" y="416.63" width="100.61" height="80.44" fill="#f3f2f2" /><rect x="235.44" y="416.63" width="100.61" height="80.44" fill="#f3efef" /><rect x="337.06" y="416.63" width="100.61" height="80.44" fill="#f3f2f2" /><rect x="438.69" y="416.63" width="100.61" height="80.44" fill="#f3f0f0" /><rect x="540.3100000000001" y="416.63" width="100.61" height="80.44" fill="#ff0000" /><rect x="641.94" y="416.63" width="100.61" height="80.44" fill="#f4dddd" /><rect x="743.5600000000001" y="416.63" width="100.61" height="80.44" fill="#f3f2f2" /><rect x="133.81" y="335.38" width="100.61" height="80.44" fill="#f3f2f2" /><rect x="235.44" y="335.38" width="100.61" height="80.44" fill="#f3f2f2" /><rect x="337.06" y="335.38" width="100.61" height="80.44" fill="#f3f2f2" /><rect x="438.69" y="335.38" width="100.61" height="80.44" fill="#ff0000" /><rect x="540.3100000000001" y="335.38" width="100.61" height="80.44" fill="#f3f0f0" /><rect x="641.94" y="335.38" width="100.61" height="80.44" fill="#f3efef" /><rect x="743.5600000000001" y="335.38" width="100.61" height="80.44" fill="#f3f2f2" /><rect x="133.81" y="254.13" width="100.61" height="80.44" fill="#f3f2f2" /><rect x="235.44" y="254.13" width="100.61" height="80.44" fill="#f3f2f2" /><rect x="337.06" y="254.13" width="100.61" height="80.44" fill="#ff0000" /><rect x="438.69" y="254.13" width="100.61" height="80.44" fill="#f3f2f2" /><rect x="540.3100000000001" y="254.13" width="100.61" height="80.44" fill="#f3f2f2" /><rect x="641.94" y="254.13" width="100.61" height="80.44" fill="#f3f2f2" /><rect x="743.5600000000001" y="254.13" width="100.61" height="80.44" fill="#f3eded" /><rect x="133.81" y="172.88" width="100.61" height="80.44" fill="#f3ecec" /><rect x="235.44" y="172.88" width="100.61" height="80.44" fill="#ff0000" /><rect x="337.06" y="172.88" width="100.61" height="80.44" fill="#f3f2f2" /><rect x="438.69" y="172.88" width="100.61" height="80.44" fill="#f3f2f2" /><rect x="540.3100000000001" y="172.88" width="100.61" height="80.44" fill="#f3efef" /><rect x="641.94" y="172.88" width="100.61" height="80.44" fill="#f3f2f2" /><rect x="743.5600000000001" y="172.88" width="100.61" height="80.44" fill="#f3f2f2" /><rect x="133.81" y="91.63" width="100.61" height="80.44" fill="#ff0000" /><rect x="235.44" y="91.63" width="100.61" height="80.44" fill="#f3ecec" /><rect x="337.06" y="91.63" width="100.61" height="80.44" fill="#f3f2f2" /><rect x="438.69" y="91.63" width="100.61" height="80.44" fill="#f3f2f2" /><rect x="540.3100000000001" y="91.63" width="100.61" height="80.44" fill="#f3f2f2" /><rect x="641.94" y="91.63" width="100.61" height="80.44" fill="#f3f2f2" /><rect x="743.5600000000001" y="91.63" width="100.61" height="80.44" fill="#f3f2f2" /></g><rect x="935" y="116" width="20" height="10.9" fill="#f3f2f2" /><rect x="935" y="126.4" width="20" height="10.9" fill="#f3eeee" /><rect x="935" y="136.8" width="20" height="10.9" fill="#f3e9e9" /><rect x="935" y="147.20000000000002" width="20" height="10.9" fill="#f3e4e4" /><rect x="935" y="157.6" width="20" height="10.9" fill="#f3dfdf" /><rect x="935" y="168" width="20" height="10.9" fill="#f4dada" /><rect x="935" y="178.4" width="20" height="10.9" fill="#f4d5d5" /><rect x="935" y="188.8" width="20" height="10.9" fill="#f4d0d0" /><rect x="935" y="199.20000000000002" width="20" height="10.9" fill="#f4cbcb" /><rect x="935" y="209.6" width="20" height="10.9" fill="#f5c6c6" /><rect x="935" y="220" width="20" height="10.9" fill="#f5c1c1" /><rect x="935" y="230.4" width="20" height="10.9" fill="#f5bcbc" /><rect x="935" y="240.8" width="20" height="10.9" fill="#f5b7b7" /><rect x="935" y="251.20000000000002" width="20" height="10.9" fill="#f6b2b2" /><rect x="935" y="261.6" width="20" height="10.9" fill="#f6adad" /><rect x="935" y="272" width="20" height="10.9" fill="#f6a8a8" /><rect x="935" y="282.40000000000003" width="20" height="10.9" fill="#f6a3a3" /><rect x="935" y="292.8" width="20" height="10.9" fill="#f79e9e" /><rect x="935" y="303.2" width="20" height="10.9" fill="#f79999" /><rect x="935" y="313.6" width="20" height="10.9" fill="#f79494" /><rect x="935" y="324" width="20" height="10.9" fill="#f78f8f" /><rect x="935" y="334.40000000000003" width="20" height="10.9" fill="#f88a8a" /><rect x="935" y="344.8" width="20" height="10.9" fill="#f88585" /><rect x="935" y="355.2" width="20" height="10.9" fill="#f88080" /><rect x="935" y="365.6" width="20" height="10.9" fill="#f87b7b" /><rect x="935" y="376" width="20" height="10.9" fill="#f97777" /><rect x="935" y="386.40000000000003" width="20" height="10.9" fill="#f97272" /><rect x="935" y="396.8" width="20" height="10.9" fill="#f96d6d" /><rect x="935" y="407.2" width="20" height="10.9" fill="#f96868" /><rect x="935" y="417.6" width="20" height="10.9" fill="#fa6363" /><rect x="935" y="428" width="20" height="10.9" fill="#fa5e5e" /><rect x="935" y="438.40000000000003" width="20" height="10.9" fill="#fa5959" /><rect x="935" y="448.8" width="20" height="10.9" fill="#fa5454" /><rect x="935" y="459.2" width="20" height="10.9" fill="#fb4f4f" /><rect x="935" y="469.6" width="20" height="10.9" fill="#fb4a4a" /><rect x="935" y="480" width="20" height="10.9" fill="#fb4545" /><rect x="935" y="490.40000000000003" width="20" height="10.9" fill="#fb4040" /><rect x="935" y="500.8" width="20" height="10.9" fill="#fc3b3b" /><rect x="935" y="511.2" width="20" height="10.9" fill="#fc3636" /><rect x="935" y="521.6" width="20" height="10.9" fill="#fc3131" /><rect x="935" y="532" width="20" height="10.9" fill="#fc2c2c" /><rect x="935" y="542.4" width="20" height="10.9" fill="#fd2727" /><rect x="935" y="552.8000000000001" width="20" height="10.9" fill="#fd2222" /><rect x="935" y="563.2" width="20" height="10.9" fill="#fd1d1d" /><rect x="935" y="573.6" width="20" height="10.9" fill="#fd1818" /><rect x="935" y="584" width="20" height="10.9" fill="#fe1313" /><rect x="935" y="594.4" width="20" height="10.9" fill="#fe0e0e" /><rect x="935" y="604.8000000000001" width="20" height="10.9" fill="#fe0909" /><rect x="935" y="615.2" width="20" height="10.9" fill="#fe0404" /><rect x="935" y="625.6" width="20" height="10.9" fill="#ff0000" /><rect x="935" y="116" width="20" height="520" fill="none" stroke="#000000" stroke-width="1" /><line x1="955" y1="636" x2="959" y2="636" stroke="#000000" stroke-width="1" /><text x="960" y="640" font-size="20" text-anchor="start">0</text><line x1="955" y1="532" x2="959" y2="532" stroke="#000000" stroke-width="1" /><text x="960" y="536" font-size="20" text-anchor="start">0.2</text><line x1="955" y1="428" x2="959" y2="428" stroke="#000000" stroke-width="1" /><text x="960" y="432" font-size="20" text-anchor="start">0.4</text><line x1="955" y1="324" x2="959" y2="324" stroke="#000000" stroke-width="1" /><text x="960" y="328" font-size="20" text-anchor="start">0.6</text><line x1="955" y1="220" x2="959" y2="220" stroke="#000000" stroke-width="1" /><text x="960" y="224" font-size="20" text-anchor="start">0.8</text><line x1="955" y1="116" x2="959" y2="116" stroke="#000000" stroke-width="1" /><text x="960" y="120" font-size="20" text-anchor="start">1</text></g></svg>