<svg xmlns="http://www.w3.org/2000/svg" width="673.4" height="545" font-family="DejaVu Sans, Liberation Sans, Arial, sans-serif" fill="black"><rect width="100%" height="100%" fill="white" /><text x="336.7" y="27.400000000000002" font-size="18" text-anchor="middle">Variant site clusters, A_NA_N1-EXPENRD.sqm</text><line x1="114" y1="144.71" x2="114" y2="186.14000000000001" stroke="#000000" stroke-width="1" /><line x1="114" y1="144.71" x2="159" y2="144.71" stroke="#000000" stroke-width="1" /><line x1="114" y1="186.14000000000001" x2="159" y2="186.14000000000001" stroke="#000000" stroke-width="1" /><line x1="144" y1="351.86" x2="144" y2="393.29" stroke="#000000" stroke-width="1" /><line x1="144" y1="351.86" x2="159" y2="351.86" stroke="#000000" stroke-width="1" /><line x1="144" y1="393.29" x2="159" y2="393.29" stroke="#000000" stroke-width="1" /><line x1="129" y1="310.43" x2="129" y2="372.57" stroke="#000000" stroke-width="1" /><line x1="129" y1="310.43" x2="159" y2="310.43" stroke="#000000" stroke-width="1" /><line x1="129" y1="372.57" x2="144" y2="372.57" stroke="#000000" stroke-width="1" /><line x1="99" y1="269" x2="99" y2="341.5" stroke="#000000" stroke-width="1" /><line x1="99" y1="269" x2="159" y2="269" stroke="#000000" stroke-width="1" /><line x1="99" y1="341.5" x2="129" y2="341.5" stroke="#000000" stroke-width="1" /><line x1="84" y1="227.57" x2="84" y2="305.25" stroke="#000000" stroke-width="1" /><line x1="84" y1="227.57" x2="159" y2="227.57" stroke="#000000" stroke-width="1" /><line x1="84" y1="305.25" x2="99" y2="305.25" stroke="#000000" stroke-width="1" /><line x1="69" y1="165.43" x2="69" y2="266.41" stroke="#000000" stroke-width="1" /><line x1="69" y1="165.43" x2="114" y2="165.43" stroke="#000000" stroke-width="1" /><line x1="69" y1="266.41" x2="84" y2="266.41" stroke="#000000" stroke-width="1" /><line x1="192" y1="86.5" x2="258" y2="86.5" stroke="#000000" stroke-width="1" /><line x1="192" y1="86.5" x2="192" y2="124" stroke="#000000" stroke-width="1" /><line x1="258" y1="86.5" x2="258" y2="124" stroke="#000000" stroke-width="1" /><line x1="522" y1="111.5" x2="588" y2="111.5" stroke="#000000" stroke-width="1" /><line x1="522" y1="111.5" x2="522" y2="124" stroke="#000000" stroke-width="1" /><line x1="588" y1="111.5" x2="588" y2="124" stroke="#000000" stroke-width="1" /><line x1="456" y1="99" x2="555" y2="99" stroke="#000000" stroke-width="1" /><line x1="456" y1="99" x2="456" y2="124" stroke="#000000" stroke-width="1" /><line x1="555" y1="99" x2="555" y2="111.5" stroke="#000000" stroke-width="1" /><line x1="390" y1="74" x2="505.5" y2="74" stroke="#000000" stroke-width="1" /><line x1="390" y1="74" x2="390" y2="124" stroke="#000000" stroke-width="1" /><line x1="505.5" y1="74" x2="505.5" y2="99" stroke="#000000" stroke-width="1" /><line x1="324" y1="61.5" x2="447.75" y2="61.5" stroke="#000000" stroke-width="1" /><line x1="324" y1="61.5" x2="324" y2="124" stroke="#000000" stroke-width="1" /><line x1="447.75" y1="61.5" x2="447.75" y2="74" stroke="#000000" stroke-width="1" /><line x1="225" y1="49" x2="385.88" y2="49" stroke="#000000" stroke-width="1" /><line x1="225" y1="49" x2="225" y2="86.5" stroke="#000000" stroke-width="1" /><line x1="385.88" y1="49" x2="385.88" y2="61.5" stroke="#000000" stroke-width="1" /><rect x="159" y="124" width="65.34" height="41.01" fill="#ff0000" /><rect x="225" y="124" width="65.34" height="41.01" fill="#f3ecec" /><rect x="291" y="124" width="65.34" height="41.01" fill="#f3f2f2" /><rect x="357" y="124" width="65.34" height="41.01" fill="#f3f2f2" /><rect x="423" y="124" width="65.34" height="41.01" fill="#f3f2f2" /><rect x="489" y="124" width="65.34" height="41.01" fill="#f3f2f2" /><rect x="555" y="124" width="65.34" height="41.01" fill="#f3f2f2" /><rect x="159" y="165.43" width="65.34" height="41.01" fill="#f3ecec" /><rect x="225" y="165.43" width="65.34" height="41.01" fill="#ff0000" /><rect x="291" y="165.43" width="65.34" height="41.01" fill="#f3f2f2" /><rect x="357" y="165.43" width="65.34" height="41.01" fill="#f3f2f2" /><rect x="423" y="165.43" width="65.34" height="41.01" fill="#f3efef" /><rect x="489" y="165.43" width="65.34" height="41.01" fill="#f3f2f2" /><rect x="555" y="165.43" width="65.34" height="41.01" fill="#f3f2f2" /><rect x="159" y="206.86" width="65.34" height="41.01" fill="#f3f2f2" /><rect x="225" y="206.86" width="65.34" height="41.01" fill="#f3f2f2" /><rect x="291" y="206.86" width="65.34" height="41.01" fill="#ff0000" /><rect x="357" y="206.86" width="65.34" height="41.01" fill="#f3f2f2" /><rect x="423" y="206.86" width="65.34" height="41.01" fill="#f3f2f2" /><rect x="489" y="206.86" width="65.34" height="41.01" fill="#f3f2f2" /><rect x="555" y="206.86" width="65.34" height="41.01" fill="#f3eded" /><rect x="159" y="248.29" width="65.34" height="41.01" fill="#f3f2f2" /><rect x="225" y="248.29" width="65.34" height="41.01" fill="#f3f2f2" /><rect x="291" y="248.29" width="65.34" height="41.01" fill="#f3f2f2" /><rect x="357" y="248.29" width="65.34" height="41.01" fill="#ff0000" /><rect x="423" y="248.29" width="65.34" height="41.01" fill="#f3f0f0" /><rect x="489" y="248.29" width="65.34" height="41.01" fill="#f3efef" /><rect x="555" y="248.29" width="65.34" height="41.01" fill="#f3f2f2" /><rect x="159" y="289.71" width="65.34" height="41.01" fill="#f3f2f2" /><rect x="225" y="289.71" width="65.34" height="41.01" fill="#f3efef" /><rect x="291" y="289.71" width="65.34" height="41.01" fill="#f3f2f2" /><rect x="357" y="289.71" width="65.34" height="41.01" fill="#f3f0f0" /><rect x="423" y="289.71" width="65.34" height="41.01" fill="#ff0000" /><rect x="489" y="289.71" width="65.34" height="41.01" fill="#f4dddd" /><rect x="555" y="289.71" width="65.34" height="41.01" fill="#f3f2f2" /><rect x="159" y="331.14" width="65.34" height="41.01" fill="#f3f2f2" /><rect x="225" y="331.14" width="65.34" height="41.01" fill="#f3f2f2" /><rect x="291" y="331.14" width="65.34" height="41.01" fill="#f3f2f2" /><rect x="357" y="331.14" width="65.34" height="41.01" fill="#f3efef" /><rect x="423" y="331.14" width="65.34" height="41.01" fill="#f4dddd" /><rect x="489" y="331.14" width="65.34" height="41.01" fill="#ff0000" /><rect x="555" y="331.14" width="65.34" height="41.01" fill="#f4cfcf" /><rect x="159" y="372.57" width="65.34" height="41.01" fill="#f3f2f2" /><rect x="225" y="372.57" width="65.34" height="41.01" fill="#f3f2f2" /><rect x="291" y="372.57" width="65.34" height="41.01" fill="#f3eded" /><rect x="357" y="372.57" width="65.34" height="41.01" fill="#f3f2f2" /><rect x="423" y="372.57" width="65.34" height="41.01" fill="#f3f2f2" /><rect x="489" y="372.57" width="65.34" height="41.01" fill="#f4cfcf" /><rect x="555" y="372.57" width="65.34" height="41.01" fill="#ff0000" /><text x="627" y="148.91" font-size="12" text-anchor="start">38G</text><text x="627" y="190.34" font-size="12" text-anchor="start">40G</text><text x="627" y="231.77" font-size="12" text-anchor="start">435T</text><text x="627" y="273.2" font-size="12" text-anchor="start">307T</text><text x="627" y="314.63" font-size="12" text-anchor="start">61A</text><text x="627" y="356.06" font-size="12" text-anchor="start">43C</text><text x="627" y="397.49" font-size="12" text-anchor="start">817T</text><text x="192" y="420" font-size="12" text-anchor="end" transform="rotate(-45,192,420)">38G</text><text x="258" y="420" font-size="12" text-anchor="end" transform="rotate(-45,258,420)">40G</text><text x="324" y="420" font-size="12" text-anchor="end" transform="rotate(-45,324,420)">435T</text><text x="390" y="420" font-size="12" text-anchor="end" transform="rotate(-45,390,420)">307T</text><text x="456" y="420" font-size="12" text-anchor="end" transform="rotate(-45,456,420)">61A</text><text x="522" y="420" font-size="12" text-anchor="end" transform="rotate(-45,522,420)">43C</text><text x="588" y="420" font-size="12" text-anchor="end" transform="rotate(-45,588,420)">817T</text></svg>