<svg xmlns="http://www.w3.org/2000/svg" width="673.4" height="511" font-family="DejaVu Sans, Liberation Sans, Arial, sans-serif" fill="black"><rect width="100%" height="100%" fill="white" /><rect x="113.38" y="10" width="20" height="450" fill="#1f77b4" /><rect x="242.13" y="10" width="20" height="67" fill="#ff7f0e" /><rect x="242.13" y="85" width="20" height="375" fill="#2ca02c" /><rect x="370.88" y="10" width="20" height="1" fill="#d62728" /><rect x="370.88" y="18.38" width="20" height="3.97" fill="#9467bd" /><rect x="370.88" y="30.35" width="20" height="421.65000000000003" fill="#8c564b" /><rect x="370.88" y="460" width="20" height="1" fill="#e377c2" /><rect x="499.63" y="10" width="20" height="40.03" fill="#7f7f7f" /><rect x="499.63" y="58.03" width="20" height="82.94" fill="#bcbd22" /><rect x="499.63" y="148.97" width="20" height="49.410000000000004" fill="#17becf" /><rect x="499.63" y="206.38" width="20" height="36.7" fill="#1f77b4" /><rect x="499.63" y="251.08" width="20" height="39.800000000000004" fill="#ff7f0e" /><rect x="499.63" y="298.88" width="20" height="46.7" fill="#2ca02c" /><rect x="499.63" y="353.58" width="20" height="37.21" fill="#d62728" /><rect x="499.63" y="398.79" width="20" height="53.21" fill="#9467bd" /><rect x="499.63" y="460" width="20" height="1" fill="#8c564b" /><path d="M 133.375 10 C 187.75 10 187.75 10 242.125 10 L 242.125 76.99619139841184 C 187.75 76.99619139841184 187.75 78.20885101476492 133.375 78.20885101476492 Z" stroke="none" stroke-width="0" fill="#1f77b4" fill-opacity="0.5" /><text x="187.75" y="48" font-size="12" text-anchor="middle">175629</text><path d="M 133.375 78.20885101476492 C 187.75 78.20885101476492 187.75 84.99619139841184 242.125 84.99619139841184 L 242.125 460 C 187.75 460 187.75 460 133.375 460 Z" stroke="none" stroke-width="0" fill="#1f77b4" fill-opacity="0.5" /><text x="187.75" y="275" font-size="12" text-anchor="middle">983063</text><path d="M 262.125 84.99619139841184 C 316.5 84.99619139841184 316.5 10.000000000000028 370.875 10.000000000000028 L 370.875 10.383938380410664 C 316.5 10.383938380410664 316.5 85.3341687573844 262.125 85.3341687573844 Z" stroke="none" stroke-width="0" fill="#2ca02c" fill-opacity="0.5" /><text x="344.7" y="25.330000000000002" font-size="12" text-anchor="middle">886</text><path d="M 262.125 85.3341687573844 C 316.5 85.3341687573844 316.5 18.38393838041066 370.875 18.38393838041066 L 370.875 22.354623910549087 C 316.5 22.354623910549087 316.5 88.82952602630724 262.125 88.82952602630724 Z" stroke="none" stroke-width="0" fill="#2ca02c" fill-opacity="0.5" /><text x="344.7" y="34.300000000000004" font-size="12" text-anchor="middle">9163</text><path d="M 262.125 88.82952602630724 C 316.5 88.82952602630724 316.5 30.354623910549087 370.875 30.354623910549087 L 370.875 452 C 316.5 452 316.5 460 262.125 460 Z" stroke="none" stroke-width="0" fill="#2ca02c" fill-opacity="0.5" /><text x="344.7" y="250.23000000000002" font-size="12" text-anchor="middle">973015</text><path d="M 390.875 30.354623910549087 C 445.25 30.354623910549087 445.25 10.000000000000028 499.625 10.000000000000028 L 499.625 50.02873336998919 C 445.25 50.02873336998919 445.25 74.07983203535073 390.875 74.07983203535073 Z" stroke="none" stroke-width="0" fill="#8c564b" fill-opacity="0.5" /><text x="461.56" y="40.47" font-size="12" text-anchor="middle">100903</text><path d="M 390.875 74.07983203535073 C 445.25 74.07983203535073 445.25 58.02873336998919 499.625 58.02873336998919 L 499.625 140.96667574497826 C 445.25 140.96667574497826 445.25 164.676722980396 390.875 164.676722980396 Z" stroke="none" stroke-width="0" fill="#8c564b" fill-opacity="0.5" /><text x="461.56" y="109.3" font-size="12" text-anchor="middle">209067</text><path d="M 390.875 164.676722980396 C 445.25 164.676722980396 445.25 148.96667574497826 499.625 148.96667574497826 L 499.625 198.3782778271661 C 445.25 198.3782778271661 445.25 218.65126583823638 390.875 218.65126583823638 Z" stroke="none" stroke-width="0" fill="#8c564b" fill-opacity="0.5" /><text x="461.56" y="182.94" font-size="12" text-anchor="middle">124555</text><path d="M 390.875 218.65126583823638 C 445.25 218.65126583823638 445.25 206.3782778271661 499.625 206.3782778271661 L 499.625 243.0766719937514 C 445.25 243.0766719937514 445.25 258.73859280779277 390.875 258.73859280779277 Z" stroke="none" stroke-width="0" fill="#8c564b" fill-opacity="0.5" /><text x="461.56" y="232.86" font-size="12" text-anchor="middle">92508</text><path d="M 390.875 258.73859280779277 C 445.25 258.73859280779277 445.25 251.0766719937514 499.625 251.0766719937514 L 499.625 290.88166369480433 C 445.25 290.88166369480433 445.25 302.2193977197822 390.875 302.2193977197822 Z" stroke="none" stroke-width="0" fill="#8c564b" fill-opacity="0.5" /><text x="461.56" y="277.86" font-size="12" text-anchor="middle">100339</text><path d="M 390.875 302.2193977197822 C 445.25 302.2193977197822 445.25 298.88166369480433 499.625 298.88166369480433 L 499.625 345.58218321403064 C 445.25 345.58218321403064 445.25 353.232501647909 390.875 353.232501647909 Z" stroke="none" stroke-width="0" fill="#8c564b" fill-opacity="0.5" /><text x="461.56" y="327.98" font-size="12" text-anchor="middle">117721</text><path d="M 390.875 353.232501647909 C 445.25 353.232501647909 445.25 353.58218321403064 499.625 353.58218321403064 L 499.625 390.78955000693725 C 445.25 390.78955000693725 445.25 393.8758025927101 390.875 393.8758025927101 Z" stroke="none" stroke-width="0" fill="#8c564b" fill-opacity="0.5" /><text x="461.56" y="376.77" font-size="12" text-anchor="middle">93791</text><path d="M 390.875 393.8758025927101 C 445.25 393.8758025927101 445.25 398.78955000693725 499.625 398.78955000693725 L 499.625 452.00000000000006 C 445.25 452.00000000000006 445.25 451.99999999999994 390.875 451.99999999999994 Z" stroke="none" stroke-width="0" fill="#8c564b" fill-opacity="0.5" /><text x="461.56" y="428.90000000000003" font-size="12" text-anchor="middle">134131</text><text x="107.38" y="239.20000000000002" font-size="12" text-anchor="end">Initial Reads</text><text x="268.13" y="47.7" font-size="12" text-anchor="start">Fail QC</text><text x="268.13" y="276.7" font-size="12" text-anchor="start">Pass QC</text><text x="396.88" y="14.39" font-size="12" text-anchor="start">Chimeric</text><text x="396.88" y="24.57" font-size="12" text-anchor="start">No Match</text><text x="396.88" y="245.38" font-size="12" text-anchor="start">Primary Match</text><text x="396.88" y="464.2" font-size="12" text-anchor="start">Alt Match</text><text x="525.63" y="34.21" font-size="12" text-anchor="start">A_HA_H3</text><text x="525.63" y="103.7" font-size="12" text-anchor="start">A_MP</text><text x="525.63" y="177.87" font-size="12" text-anchor="start">A_NA_N2</text><text x="525.63" y="228.93" font-size="12" text-anchor="start">A_NP</text><text x="525.63" y="275.18" font-size="12" text-anchor="start">A_NS</text><text x="525.63" y="326.43" font-size="12" text-anchor="start">A_PA</text><text x="525.63" y="376.39" font-size="12" text-anchor="start">A_PB1</text><text x="525.63" y="429.59000000000003" font-size="12" text-anchor="start">A_PB2</text><text x="525.63" y="464.2" font-size="12" text-anchor="start">A_HA_H14</text></svg>